<svg width="85" height="85" viewBox="0 0 85 85" fill="none" xmlns="http://www.w3.org/2000/svg">
<g clip-path="url(#clip0_717_4812)">
<path d="M42.491 84.9819C65.9581 84.9819 84.9819 65.9581 84.9819 42.491C84.9819 19.0239 65.9581 0 42.491 0C19.0239 0 0 19.0239 0 42.491C0 65.9581 19.0239 84.9819 42.491 84.9819Z" fill="#1E9BEF"/>
<path d="M24.7397 37.8866C24.3063 37.4532 23.8729 37.0198 23.4395 36.5864C20.7669 33.8054 20.0626 29.4354 21.7059 25.9501C22.0129 25.282 22.1935 25.2097 22.7171 25.8056C27.3762 31.1509 33.2812 34.1847 40.2878 35.1056C40.3239 35.1056 40.36 35.1056 40.3781 35.1056C41.3893 35.214 41.8649 34.7866 41.8047 33.8235C41.5519 29.7243 43.6827 26.0223 47.2583 24.3249C50.8699 22.6093 55.0413 23.2233 57.9848 25.9682C58.4182 26.3655 58.8155 26.3655 59.3031 26.2571C61.0547 25.8418 62.68 25.0833 64.3052 24.3429C64.3413 24.3791 64.3774 24.4152 64.4136 24.4513C63.8357 26.4919 62.4272 27.9004 60.6575 29.327C62.5355 29.1825 64.0343 28.6227 65.7679 28.0088C64.6483 29.7965 63.3301 31.1148 61.8673 32.2705C61.3437 32.6858 61.0909 33.0831 61.1089 33.8054C61.3256 44.9835 54.1926 55.8365 43.9897 59.7009C35.4121 62.9514 27.1053 62.1388 19.1777 57.4256C24.216 57.7326 28.7847 56.5227 33.0645 53.3083C31.3851 53.1458 30.0307 52.8207 28.7847 52.1526C26.7983 51.0691 25.3356 49.498 24.4327 47.4213C24.1618 46.7893 24.3063 46.6268 24.9744 46.6809C26.0218 46.7532 27.0692 46.7893 28.2068 46.4281C23.5659 44.9293 21.0377 41.8775 20.6946 36.9476C22.1032 37.3629 23.3131 38.1033 24.7397 37.8866C24.7577 37.9227 24.7758 37.9588 24.7938 37.9949C24.7938 37.9769 24.7938 37.9408 24.7938 37.9408C24.7758 37.9408 24.7397 37.9227 24.7216 37.9047L24.7397 37.8866Z" fill="white"/>
</g>
<defs>
<clipPath id="clip0_717_4812">
<rect width="85" height="85" fill="white"/>
</clipPath>
</defs>
</svg>
