<svg width="20" height="20" viewBox="0 0 20 20" fill="none" xmlns="http://www.w3.org/2000/svg">
<path d="M16.8443 3.98507L16.8754 4.00765C17.3353 4.35932 17.7145 4.80568 17.9873 5.31672C18.2672 5.84103 18.4282 6.42056 18.4588 7.01411C18.4894 7.60766 18.3889 8.20067 18.1644 8.751L18.6737 8.95871L18.1644 8.751C17.94 9.30132 17.5971 9.79546 17.1601 10.1983L17.1601 10.1983L17.1552 10.2028L9.97203 16.9876C9.84479 17.1043 9.67841 17.169 9.50572 17.169C9.33303 17.169 9.16665 17.1043 9.03941 16.9876L1.85624 10.2028L1.85626 10.2028L1.85199 10.1989C1.41579 9.79552 1.07368 9.30113 0.849913 8.75077C0.626145 8.20041 0.526202 7.60756 0.557169 7.01426C0.588137 6.42096 0.749256 5.84174 1.0291 5.31767C1.30833 4.79477 1.69892 4.33955 2.1733 3.98414C3.09551 3.31651 4.22223 2.99242 5.35831 3.06808C6.49573 3.14383 7.57071 3.61549 8.39663 4.40119L8.39872 4.40315L9.13015 5.09172L9.50754 5.447L9.88456 5.09133L10.616 4.40134L10.6177 4.39975C11.4436 3.61406 12.5186 3.1424 13.656 3.06665C14.7934 2.9909 15.9214 3.31584 16.8443 3.98507Z" stroke="#FF583E" stroke-width="1.1"/>
</svg>
