<svg width="85" height="85" viewBox="0 0 85 85" fill="none" xmlns="http://www.w3.org/2000/svg">
<g clip-path="url(#clip0_717_4820)">
<path d="M42.491 84.9819C65.9581 84.9819 84.9819 65.9581 84.9819 42.491C84.9819 19.0239 65.9581 0 42.491 0C19.0239 0 0 19.0239 0 42.491C0 65.9581 19.0239 84.9819 42.491 84.9819Z" fill="#FBE34D"/>
<path d="M42.491 23.3496C30.9699 23.3496 21.6338 30.7354 21.6338 39.8368C21.6338 45.7598 25.5885 50.9606 31.5297 53.868C31.0963 55.4932 29.9586 59.773 29.7239 60.6759C29.4349 61.8136 30.1392 61.7955 30.5907 61.4886C30.9518 61.2538 36.2971 57.606 38.6085 56.035C39.8545 56.2156 41.1547 56.3239 42.473 56.3239C53.9941 56.3239 63.3302 48.9381 63.3302 39.8368C63.3302 30.7354 53.9941 23.3496 42.473 23.3496" fill="#371C1D"/>
</g>
<defs>
<clipPath id="clip0_717_4820">
<rect width="85" height="85" fill="white"/>
</clipPath>
</defs>
</svg>
