<svg width="20" height="20" viewBox="0 0 20 20" fill="none" xmlns="http://www.w3.org/2000/svg">
<path d="M17.1671 3.53983C16.1403 2.79515 14.8851 2.43357 13.6194 2.51786C12.3538 2.60215 11.1576 3.12699 10.2386 4.00126L9.50715 4.69126L8.77572 4.00269C7.85668 3.12842 6.66051 2.60358 5.39486 2.51929C4.12921 2.435 2.874 2.79658 1.84715 3.54126C1.30671 3.94533 0.861793 4.46335 0.543941 5.0586C0.22609 5.65384 0.0430896 6.31172 0.00791678 6.98559C-0.0272561 7.65947 0.0862601 8.33283 0.340416 8.95793C0.594572 9.58302 0.983142 10.1446 1.47857 10.6027L8.66429 17.3898C8.89339 17.6015 9.19382 17.719 9.50572 17.719C9.81761 17.719 10.118 17.6015 10.3471 17.3898L17.5329 10.6027C18.0292 10.1451 18.4188 9.58382 18.6737 8.95871C18.9287 8.33359 19.0428 7.65999 19.008 6.98578C18.9733 6.31156 18.7904 5.65328 18.4725 5.05772C18.1546 4.46215 17.7094 3.94391 17.1686 3.53983H17.1671Z" fill="#FF583E"/>
</svg>
