<svg width="444" height="76" viewBox="0 0 444 76" fill="none" xmlns="http://www.w3.org/2000/svg">
<rect x="1" y="1" width="442" height="74" rx="19" fill="#F9FAFE"/>
<rect x="1" y="1" width="442" height="74" rx="19" stroke="#A7C6FF" stroke-width="2"/>
<path d="M32.1445 30.7422V32.0117H27.0078V37.207C29.3223 37.2168 31.0215 37.1289 33.0039 36.7188L33.1406 37.9883C30.9727 38.3984 29.1953 38.4766 26.6172 38.4766H25.5039V30.7422H32.1445ZM39.4492 29.2188V40.7031H37.9844V35.0586H35.543V39.1992H34.1172V29.5508H35.543V33.7695H37.9844V29.2188H39.4492ZM34.4102 40.5859C34.4102 42.9102 37.3398 44.8438 40.3867 45.3125L39.7227 46.5039C37.1445 46.0352 34.6934 44.668 33.6484 42.6953C32.5938 44.668 30.1328 46.0352 27.5742 46.5039L26.9102 45.3125C29.9375 44.8438 32.8672 42.9102 32.8867 40.5859V39.9219H34.4102V40.5859ZM55.7969 29.9805V31.0938C55.7969 32.2754 55.7969 33.7598 55.4062 35.7227H57.8867V36.9531H41.9883V35.7227H53.8633C54.2539 33.7891 54.2734 32.3633 54.2734 31.2305H44V29.9805H55.7969ZM55.8555 38.7109V43.0859H45.4453V45.1367H56.3047V46.3867H43.9023V41.875H54.332V39.9414H43.8828V38.7109H55.8555ZM67.1836 29.5312C71.0508 29.5312 73.3164 30.5859 73.3164 32.5195C73.3164 34.4922 71.0508 35.5469 67.1836 35.5664C63.3164 35.5469 61.0312 34.4922 61.0312 32.5195C61.0312 30.5859 63.3164 29.5312 67.1836 29.5312ZM67.1836 30.6836C64.293 30.6836 62.6133 31.3867 62.6328 32.5195C62.6133 33.7305 64.293 34.3945 67.1836 34.3945C70.0547 34.3945 71.7539 33.7305 71.7539 32.5195C71.7539 31.3867 70.0547 30.6836 67.1836 30.6836ZM75.0938 36.7383V37.9883H59.2734V36.7383H75.0938ZM73.0625 39.4922V43.3789H62.75V45.1758H73.5898V46.3867H61.2266V42.2461H71.5586V40.6641H61.1875V39.4922H73.0625ZM95.1523 29.2383V33.2227H97.7891V34.5117H95.1523V39.043H93.6289V29.2383H95.1523ZM95.1523 40V46.3477H84.1562V40H95.1523ZM85.6602 41.2109V45.0977H93.668V41.2109H85.6602ZM83.9609 30.1172V36.4258C86.4316 36.416 88.9805 36.2207 91.793 35.6445L91.9883 36.9336C89.0391 37.5195 86.4219 37.7148 83.8047 37.7148H82.418V30.1172H83.9609ZM107.672 31.1133C107.672 32.0996 107.584 33.0664 107.398 34.0039H111.715V29.1992H113.238V46.582H111.715V39.9023H106.812V38.6328H111.715V35.2539H107.086C106.08 38.4766 103.785 41.3086 99.6836 43.3008L98.8828 42.0508C103.512 39.8145 105.807 36.4648 106.129 32.3633H99.6445V31.1133H107.672ZM132.047 43.0859V44.3555H116.148V43.0859H123.297V39.3359H118.023V30.4492H119.566V33.5938H128.59V30.4492H130.094V39.3359H124.801V43.0859H132.047ZM119.566 38.0859H128.59V34.8438H119.566V38.0859ZM138.59 34.1602C138.59 36.9141 139.938 39.9023 142.242 41.2695L141.363 42.4609C139.693 41.4453 138.492 39.5898 137.887 37.4805C137.242 39.7852 135.953 41.7676 134.215 42.832L133.238 41.6797C135.641 40.2734 137.105 37.1875 137.105 34.2188V30.8594H138.59V34.1602ZM148.316 29.2188V46.582H146.832V29.2188H148.316ZM144.723 29.5898V45.7031H143.277V36.7578H140.328V35.4492H143.277V29.5898H144.723ZM166.617 43.0664V44.3555H150.719V43.0664H154.664V38.3789C153.18 37.6074 152.281 36.3574 152.281 34.7852C152.281 32.0898 154.918 30.332 158.629 30.3125C162.34 30.332 164.977 32.0898 164.977 34.7852C164.977 36.3281 164.107 37.5684 162.672 38.3398V43.0664H166.617ZM158.629 31.582C155.777 31.5625 153.766 32.8516 153.766 34.7852C153.766 36.7188 155.777 38.0273 158.629 38.0273C161.461 38.0273 163.492 36.7188 163.492 34.7852C163.492 32.8516 161.461 31.5625 158.629 31.582ZM156.168 43.0664H161.129V38.9258C160.377 39.1309 159.537 39.2383 158.629 39.2383C157.74 39.2383 156.91 39.1406 156.168 38.9453V43.0664Z" fill="#8A8A8A"/>
<rect x="264" y="16" width="60" height="44" rx="12" fill="#4783F5"/>
<path d="M293.359 37.3125V38.7344H280.469V37.3125H293.359ZM291.875 34.8125V36.2031H282.047V31.2188H291.797V32.625H283.781V34.8125H291.875ZM286.891 39.7188C289.938 39.7031 291.766 40.6406 291.781 42.2812C291.766 43.9375 289.938 44.875 286.891 44.875C283.812 44.875 281.969 43.9375 281.969 42.2812C281.969 40.6406 283.812 39.7031 286.891 39.7188ZM286.891 41.0469C284.828 41.0469 283.719 41.4844 283.734 42.2812C283.719 43.1094 284.828 43.5312 286.891 43.5312C288.906 43.5312 290.031 43.1094 290.047 42.2812C290.031 41.4844 288.906 41.0469 286.891 41.0469ZM307.188 38.4062V39.8125H294.281V38.4062H299.875V37.2344H295.922V33.4844H303.859V32.4375H295.875V31.0781H305.594V34.75H297.641V35.875H305.875V37.2344H301.594V38.4062H307.188ZM305.672 40.7031V44.7969H303.922V42.0781H295.719V40.7031H305.672Z" fill="white"/>
<rect x="332.5" y="16.5" width="43" height="43" rx="11.5" fill="white"/>
<rect x="332.5" y="16.5" width="43" height="43" rx="11.5" stroke="#D4E3FF"/>
<path d="M348.623 30.6894C347.627 30.6894 346.712 30.9915 345.98 31.5622C345.047 32.2911 344.504 33.3058 344.451 34.4194C344.399 35.522 344.83 36.5647 345.666 37.3548L353.998 45.2253L362.33 37.3544C363.167 36.5639 363.6 35.5214 363.548 34.4191C363.496 33.3058 362.953 32.2912 362.02 31.563C361.287 30.9915 360.374 30.6894 359.378 30.6894C358.133 30.6894 356.911 31.1691 356.024 32.0063L354 33.9143L351.974 32.0044C351.09 31.1687 349.869 30.6894 348.623 30.6894ZM348.623 29C350.26 29 351.91 29.619 353.135 30.777L354 31.5926L354.865 30.777C357.074 28.692 360.653 28.3545 363.059 30.2307C365.817 32.384 365.962 36.2487 363.489 38.5829L354.992 46.6096C354.443 47.1279 353.552 47.1279 353.003 46.6096L344.506 38.5829C342.038 36.2487 342.183 32.384 344.94 30.2307C346.01 29.3966 347.313 29 348.623 29Z" fill="#FF583E"/>
<rect x="384.5" y="16.5" width="43" height="43" rx="11.5" fill="white"/>
<rect x="384.5" y="16.5" width="43" height="43" rx="11.5" stroke="#D4E3FF"/>
<path d="M413.459 29H410.916C410.508 29.0008 410.117 29.1717 409.829 29.4754C409.54 29.7791 409.378 30.1908 409.377 30.6202V38.5343C409.377 38.6581 409.294 39.1703 408.22 40.5416C407.612 41.3186 406.99 41.9805 406.99 41.9805C406.917 42.0574 406.874 42.1599 406.868 42.2683C406.741 44.362 406.671 45.539 406.66 45.7707C406.648 45.8935 406.595 46.008 406.511 46.0944C406.418 46.1263 406.317 46.1201 406.228 46.0772C405.882 45.913 405.572 45.6735 405.32 45.3744C405.068 45.0753 404.879 44.7234 404.766 44.3418C404.351 43.0501 404.38 41.6462 404.847 40.3747C404.875 40.2864 404.876 40.1911 404.849 40.1024C404.823 40.0138 404.77 39.9363 404.698 39.8812C404.624 39.8245 404.534 39.7947 404.441 39.7963H398.714C398.599 39.7967 398.484 39.773 398.377 39.7268C398.27 39.6806 398.173 39.6127 398.091 39.5269C398.009 39.4411 397.944 39.3392 397.899 39.2269C397.855 39.1146 397.832 38.9942 397.831 38.8725C397.835 38.6343 397.928 38.4073 398.089 38.2402C398.25 38.0731 398.468 37.9793 398.694 37.9789H399.263C399.374 37.9801 399.481 37.9357 399.562 37.8552C399.642 37.7746 399.69 37.6641 399.695 37.5472C399.696 37.4887 399.686 37.4305 399.665 37.3761C399.645 37.3217 399.614 37.2721 399.575 37.2303C399.536 37.1885 399.49 37.1553 399.438 37.1326C399.387 37.1099 399.332 37.0983 399.276 37.0983C399.05 37.098 398.833 37.0041 398.672 36.837C398.51 36.6699 398.418 36.4429 398.414 36.2047C398.414 36.083 398.437 35.9625 398.481 35.8501C398.526 35.7377 398.591 35.6357 398.673 35.5499C398.755 35.464 398.852 35.3961 398.959 35.35C399.066 35.3038 399.181 35.2804 399.297 35.2809H399.685C399.796 35.2822 399.904 35.2378 399.984 35.1572C400.065 35.0766 400.113 34.9662 400.117 34.8492C400.118 34.7907 400.108 34.7325 400.088 34.6781C400.067 34.6237 400.036 34.5741 399.997 34.5323C399.959 34.4905 399.912 34.4573 399.861 34.4346C399.81 34.4119 399.754 34.4003 399.699 34.4003C399.472 34.4 399.255 34.3061 399.094 34.139C398.933 33.9719 398.84 33.7449 398.836 33.5067C398.836 33.385 398.859 33.2645 398.904 33.1521C398.948 33.0397 399.014 32.9377 399.096 32.8519C399.178 32.7661 399.275 32.6981 399.382 32.652C399.489 32.6058 399.604 32.5824 399.719 32.583H400.188C400.296 32.5841 400.401 32.5421 400.481 32.4655C400.561 32.3889 400.61 32.2833 400.619 32.17C400.626 32.0543 400.589 31.9405 400.517 31.8532C400.444 31.7659 400.342 31.7122 400.232 31.7037C400.115 31.6941 400 31.6593 399.896 31.6016C399.792 31.5438 399.7 31.4643 399.626 31.3678C399.552 31.2714 399.497 31.16 399.466 31.0407C399.434 30.9213 399.426 30.7963 399.442 30.6735C399.473 30.4537 399.579 30.2534 399.74 30.1094C399.901 29.9653 400.106 29.8871 400.317 29.8893H411.391C411.502 29.8893 411.608 29.8429 411.687 29.7603C411.765 29.6777 411.809 29.5657 411.809 29.449C411.809 29.3322 411.765 29.2202 411.687 29.1376C411.608 29.055 411.502 29.0087 411.391 29.0087H400.332C399.882 29.0059 399.448 29.1891 399.125 29.519C398.802 29.8489 398.615 30.2991 398.604 30.7727C398.757 30.9849 398.863 31.2299 398.916 31.4903C398.969 31.7507 398.967 32.0202 398.91 32.2796C398.853 32.539 398.742 32.782 398.586 32.9914C398.429 33.2007 398.231 33.3713 398.005 33.4909C398.166 33.6888 398.284 33.9214 398.35 34.1723C398.417 34.4232 398.43 34.6863 398.39 34.9433C398.35 35.2004 398.257 35.445 398.117 35.6602C397.978 35.8753 397.795 36.0558 397.582 36.1889C397.737 36.3994 397.845 36.6432 397.9 36.903C397.955 37.1627 397.954 37.4319 397.899 37.6914C397.843 37.9509 397.734 38.1943 397.578 38.4042C397.423 38.614 397.225 38.7853 397 38.9056C397.01 39.3806 397.197 39.8325 397.521 40.1636C397.845 40.4947 398.279 40.6786 398.731 40.6755H403.896C403.527 41.9788 403.56 43.3714 403.989 44.6541C404.146 45.156 404.403 45.6168 404.743 46.0054C405.083 46.3941 405.498 46.7016 405.96 46.9074C406.122 46.9794 406.298 47.0101 406.473 46.9971C406.649 46.9841 406.819 46.9277 406.969 46.8326C407.118 46.7172 407.242 46.5704 407.333 46.4017C407.424 46.2329 407.481 46.0459 407.5 45.8527C407.5 45.8412 407.5 45.8311 407.5 45.8196C407.5 45.6944 407.617 43.8195 407.698 42.4842C407.909 42.2554 408.382 41.7244 408.87 41.1071C409.196 40.6973 409.496 40.2646 409.767 39.8121L409.824 39.7099C409.966 39.8636 410.136 39.9859 410.324 40.0697C410.512 40.1534 410.714 40.197 410.918 40.1977H413.461C413.869 40.1973 414.26 40.0265 414.549 39.7227C414.837 39.419 415 39.0071 415 38.5775V30.6231C415 30.4101 414.961 30.199 414.883 30.0021C414.806 29.8052 414.692 29.6262 414.549 29.4755C414.406 29.3247 414.236 29.2052 414.049 29.1236C413.862 29.042 413.662 29 413.459 29ZM414.162 38.5775C414.162 38.7735 414.087 38.9614 413.956 39.1C413.824 39.2387 413.646 39.3167 413.459 39.3171H410.916C410.73 39.3167 410.552 39.2387 410.42 39.1C410.288 38.9614 410.214 38.7735 410.214 38.5775V38.53V31.6707V30.6231C410.214 30.4271 410.288 30.2392 410.42 30.1006C410.552 29.962 410.73 29.8839 410.916 29.8835H413.459C413.646 29.8839 413.824 29.962 413.956 30.1006C414.087 30.2392 414.162 30.4271 414.162 30.6231V38.5775Z" fill="#737980" stroke="#737980" stroke-width="0.4" stroke-linejoin="round"/>
</svg>
