<svg width="141" height="56" viewBox="0 0 141 56" fill="none" xmlns="http://www.w3.org/2000/svg">
<rect x="0.5" width="140" height="56" rx="15" fill="#EBF1FF"/>
<path d="M36.2063 27.9179C35.8335 28.3066 35.5316 28.6422 35.1943 28.9602C32.2469 31.8396 29.2818 34.7014 26.3345 37.5631C26.2102 37.6868 26.0859 37.8281 25.9439 37.9341C25.8551 38.0047 25.7131 38.0754 25.642 38.0401C25.571 38.0047 25.5 37.8634 25.5 37.7574C25.5 36.2029 25.5 34.6484 25.5 33.0938C25.5 29.8081 25.5 26.5224 25.5 23.2367C25.5 21.5762 25.5 19.898 25.5 18.2374C25.5 18.1314 25.571 17.9725 25.642 17.9371C25.7131 17.9018 25.8729 17.9725 25.9616 18.0431C28.2343 20.2336 30.4892 22.4241 32.7441 24.6146C33.8271 25.6745 34.9279 26.7344 36.011 27.7766C36.0643 27.8296 36.153 27.8649 36.2063 27.9003V27.9179Z" fill="#333333"/>
<path d="M40.5385 23.8559C39.5087 24.8451 38.4966 25.799 37.4846 26.753C37.2183 26.5056 36.9519 26.2583 36.7034 26.0287C33.6317 23.1139 30.5779 20.1815 27.5062 17.2668C27.4707 17.2314 27.4175 17.1785 27.382 17.1431C27.2754 17.0548 27.2222 16.9311 27.3109 16.8075C27.3997 16.6838 27.524 16.7015 27.6483 16.7722C28.0566 17.0018 28.4828 17.2314 28.8911 17.4611C32.7085 19.5456 36.5081 21.6301 40.3254 23.7322C40.3964 23.7675 40.4497 23.8029 40.5562 23.8735L40.5385 23.8559Z" fill="#333333"/>
<path d="M37.4847 29.1914C38.4968 30.163 39.5088 31.1169 40.5386 32.0885C40.29 32.2298 40.0592 32.3535 39.8462 32.4771C37.2184 33.9257 34.5907 35.3565 31.9629 36.8051C30.5425 37.5823 29.1043 38.3773 27.6839 39.1545C27.5952 39.2075 27.4531 39.2075 27.3643 39.1722C27.2223 39.1016 27.2578 38.9426 27.3999 38.7836C28.0568 38.1476 28.7315 37.5117 29.3884 36.8934C32.0162 34.4026 34.6262 31.9118 37.2539 29.4211C37.3249 29.3504 37.396 29.2797 37.5025 29.1914H37.4847Z" fill="#333333"/>
<path d="M38.7632 27.9719C39.1893 27.5656 39.6154 27.1594 40.0415 26.7531C40.6985 26.1348 41.3554 25.5165 41.9946 24.8805C42.1011 24.7746 42.1899 24.7569 42.332 24.8276C43.4683 25.4635 44.6046 26.0818 45.7409 26.7001C46.2381 26.965 46.5044 27.4067 46.5044 27.9719C46.5044 28.5549 46.2203 28.9789 45.7232 29.2615C44.5868 29.8798 43.4683 30.4981 42.332 31.1163C42.2254 31.1693 42.1544 31.2047 42.0479 31.1163C40.9826 30.0918 39.9173 29.0849 38.852 28.0603C38.8342 28.0426 38.8164 28.0073 38.7809 27.9719H38.7632Z" fill="#333333"/>
<path d="M85.9536 24.8926C83.1922 24.8926 80.9407 26.9848 80.9407 29.8801C80.9407 32.7754 83.1922 34.8677 85.9536 34.8677C88.715 34.8677 90.9665 32.7543 90.9665 29.8801C90.9665 27.0059 88.715 24.8926 85.9536 24.8926ZM85.9536 32.8811C84.4455 32.8811 83.1285 31.6342 83.1285 29.859C83.1285 28.0838 84.4455 26.8369 85.9536 26.8369C87.4617 26.8369 88.7787 28.0626 88.7787 29.859C88.7787 31.6553 87.483 32.8811 85.9536 32.8811Z" fill="#333333"/>
<path d="M75.0146 24.8926C72.2533 24.8926 69.9805 26.9848 69.9805 29.8801C69.9805 32.7754 72.232 34.8677 75.0146 34.8677C77.7972 34.8677 80.0276 32.7543 80.0276 29.8801C80.0276 27.0059 77.776 24.8926 75.0146 24.8926ZM75.0146 32.8811C73.5065 32.8811 72.1896 31.6342 72.1896 29.859C72.1896 28.0838 73.5065 26.8369 75.0146 26.8369C76.5228 26.8369 77.8397 28.0626 77.8397 29.859C77.8397 31.6553 76.5228 32.8811 75.0146 32.8811Z" fill="#333333"/>
<path d="M61.9723 26.4141V28.5275H67.0489C66.9003 29.711 66.4967 30.5774 65.9019 31.1903C65.1585 31.93 64.0114 32.7331 61.9723 32.7331C58.8498 32.7331 56.4071 30.2182 56.4071 27.1115C56.4071 24.0049 58.8498 21.49 61.9723 21.49C63.6503 21.49 64.9036 22.1451 65.7957 22.9905L67.3038 21.49C66.0294 20.2853 64.3513 19.3555 61.9723 19.3555C57.6816 19.3555 54.0918 22.8214 54.0918 27.0904C54.0918 31.3594 57.7028 34.8253 61.9723 34.8253C64.2876 34.8253 66.0294 34.0645 67.3888 32.6485C68.7907 31.2537 69.2368 29.2883 69.2368 27.7033C69.2368 27.2172 69.1943 26.7522 69.1306 26.393H61.9935L61.9723 26.4141Z" fill="#333333"/>
<path d="M111.23 32.8811C110.105 32.8811 109.319 32.3739 108.809 31.3806L115.5 28.6332L115.266 28.0626C114.841 26.9425 113.588 24.8926 110.976 24.8926C108.363 24.8926 106.26 26.9003 106.26 29.8801C106.26 32.6698 108.384 34.8677 111.23 34.8677C113.525 34.8677 114.863 33.4728 115.394 32.6698L113.694 31.5285C113.121 32.3528 112.356 32.9022 111.23 32.9022V32.8811ZM111.061 26.8157C111.931 26.8157 112.675 27.2384 112.909 27.8724L108.448 29.711C108.384 27.7879 109.956 26.8157 111.061 26.8157Z" fill="#333333"/>
<path d="M105.219 19.9062H103.01V34.5307H105.219V19.9062Z" fill="#333333"/>
<path d="M99.4205 26.0127H99.3356C98.847 25.4209 97.8911 24.8926 96.7016 24.8926C94.1952 24.8926 91.9011 27.0693 91.9011 29.8801C91.9011 32.6909 94.1952 34.8465 96.7016 34.8465C97.8911 34.8465 98.847 34.3182 99.3356 33.7053H99.4205V34.4238C99.4205 36.3259 98.4009 37.3403 96.7441 37.3403C95.4059 37.3403 94.5563 36.3681 94.2164 35.5651L92.3047 36.347C92.857 37.6573 94.3226 39.2846 96.7441 39.2846C99.3143 39.2846 101.502 37.7841 101.502 34.1068V25.1673H99.4205V25.9704V26.0127ZM96.8928 32.8811C95.3847 32.8811 94.1102 31.6131 94.1102 29.8801C94.1102 28.1472 95.3847 26.8369 96.8928 26.8369C98.4009 26.8369 99.5692 28.126 99.5692 29.8801C99.5692 31.6342 98.4009 32.8811 96.8928 32.8811Z" fill="#333333"/>
</svg>
