<svg width="20" height="20" viewBox="0 0 20 20" fill="none" xmlns="http://www.w3.org/2000/svg">
<path d="M10.3872 18.9258C10.2227 18.9233 10.0598 18.8944 9.90448 18.8401C9.42086 18.6363 8.98639 18.3312 8.63077 17.9453C8.27515 17.5593 8.00614 17.1016 7.84254 16.603C7.39362 15.3286 7.36096 13.9447 7.74767 12.6501H2.34728C1.87628 12.6532 1.42256 12.471 1.08473 12.1428C0.746898 11.8146 0.552528 11.3667 0.542038 10.8958C0.777186 10.7761 0.98273 10.6061 1.14472 10.3979C1.3067 10.1896 1.42004 9.94819 1.47814 9.69082C1.53624 9.43345 1.53774 9.16644 1.48093 8.90879C1.42413 8.65113 1.31123 8.40916 1.1503 8.20008C1.14866 7.89348 1.22602 7.59174 1.3763 7.32449C1.52658 7.05724 1.74405 6.8337 2.00688 6.67581V6.66579C1.83181 6.46013 1.70675 6.21717 1.63997 5.95547C1.5732 5.69377 1.5667 5.42026 1.62184 5.15586C1.67698 4.89147 1.79224 4.64318 1.95805 4.42998C2.12387 4.21679 2.33618 4.04432 2.57887 3.92579C2.37485 3.66109 2.24934 3.34416 2.21754 3.01148C2.18574 2.6788 2.24873 2.34393 2.3989 2.04538C2.54907 1.74683 2.7811 1.49674 3.06715 1.32395C3.3532 1.15115 3.68167 1.06265 4.01581 1.06865H12.8523V13.1858C12.338 13.8044 11.8526 14.3101 11.7097 14.4501C11.6212 15.8372 11.509 17.6401 11.5033 17.7587C11.5038 17.7644 11.5038 17.7701 11.5033 17.7758C11.5039 17.7791 11.5039 17.7825 11.5033 17.7858V17.7929C11.4838 17.9844 11.4243 18.1697 11.3289 18.3368C11.2334 18.5038 11.1031 18.649 10.948 18.763C10.7806 18.8705 10.5862 18.927 10.3872 18.9258ZM17.7491 12.1872H15.0886C14.8059 12.1873 14.5275 12.1118 14.2837 11.9687V1.07008H17.7505C18.177 1.07046 18.5859 1.24004 18.8875 1.54162C19.189 1.84321 19.3586 2.25216 19.359 2.67867V10.5787C19.359 11.0057 19.1894 11.4152 18.8875 11.7171C18.5855 12.019 18.1761 12.1872 17.7491 12.1872Z" fill="#737980" stroke="#737980" stroke-width="0.44"/>
</svg>
