<svg width="101" height="29" viewBox="0 0 101 29" fill="none" xmlns="http://www.w3.org/2000/svg">
<rect x="0.5" y="0.789062" width="100" height="28" rx="14" fill="white"/>
<g clip-path="url(#clip0_1135_6518)">
<path d="M18.1601 6.61689C17.971 6.82363 17.8701 7.13373 17.8701 7.53429V22.0317C17.8701 22.4323 17.9836 22.7553 18.1601 22.9491L18.2105 23.0008L26.1409 14.8735V14.6796L18.2105 6.57812L18.1601 6.62981" fill="#5AC9F4"/>
<mask id="mask0_1135_6518" style="mask-type:luminance" maskUnits="userSpaceOnUse" x="26" y="11" width="7" height="7">
<path d="M28.7766 17.5992L26.1416 14.8858V14.6919L28.7892 11.9785L31.979 13.8392C32.8742 14.356 32.8742 15.2088 31.979 15.7256L28.8523 17.5475L28.7892 17.5863" fill="white"/>
</mask>
<g mask="url(#mask0_1135_6518)">
<path d="M32.8489 11.9922H26.1289V17.5999H32.8489V11.9922Z" fill="url(#paint0_linear_1135_6518)"/>
</g>
<mask id="mask1_1135_6518" style="mask-type:luminance" maskUnits="userSpaceOnUse" x="18" y="14" width="11" height="10">
<path d="M28.8391 17.56L26.141 14.7949L18.1729 22.9611C18.4628 23.2841 18.9545 23.3228 19.4967 22.9998L28.8391 17.56Z" fill="white"/>
</mask>
<g mask="url(#mask1_1135_6518)">
<path d="M23.5064 9.31508L14.0029 19.0547L23.5064 28.7943L33.0099 19.0547L23.5064 9.31508Z" fill="url(#paint1_linear_1135_6518)"/>
</g>
<mask id="mask2_1135_6518" style="mask-type:luminance" maskUnits="userSpaceOnUse" x="18" y="6" width="11" height="9">
<path d="M28.8391 12.0171L19.4967 6.57727C18.9545 6.25425 18.4628 6.29301 18.1729 6.61604L26.141 14.7822L28.8391 12.0171Z" fill="white"/>
</mask>
<g mask="url(#mask2_1135_6518)">
<path d="M23.5103 0.779927L14.0068 10.5195L23.5103 20.2591L33.0138 10.5195L23.5103 0.779927Z" fill="url(#paint2_linear_1135_6518)"/>
</g>
<path d="M42.1938 13.9561C41.9917 13.2793 41.4644 12.8662 40.6909 12.8662C39.6626 12.8662 38.9243 13.666 38.9243 15.0986C38.9243 16.5488 39.6538 17.3486 40.7173 17.3486C41.6753 17.3486 42.2905 16.7686 42.3081 15.8633H40.8315V14.958H43.4155V15.7227C43.4155 17.3574 42.2905 18.377 40.7173 18.377C38.9595 18.377 37.7729 17.1289 37.7729 15.1074C37.7729 13.0684 39.0122 11.8379 40.6821 11.8379C42.0884 11.8379 43.1694 12.708 43.3628 13.9561H42.1938ZM46.4829 18.3857C45.0942 18.3857 44.1978 17.4014 44.1978 15.9248C44.1978 14.4395 45.0942 13.4551 46.4829 13.4551C47.8804 13.4551 48.7681 14.4395 48.7681 15.9248C48.7681 17.4014 47.8804 18.3857 46.4829 18.3857ZM46.4917 17.4893C47.2563 17.4893 47.6343 16.7949 47.6343 15.916C47.6343 15.0459 47.2563 14.3428 46.4917 14.3428C45.7095 14.3428 45.3315 15.0459 45.3315 15.916C45.3315 16.7949 45.7095 17.4893 46.4917 17.4893ZM51.7212 18.3857C50.3325 18.3857 49.436 17.4014 49.436 15.9248C49.436 14.4395 50.3325 13.4551 51.7212 13.4551C53.1187 13.4551 54.0063 14.4395 54.0063 15.9248C54.0063 17.4014 53.1187 18.3857 51.7212 18.3857ZM51.73 17.4893C52.4946 17.4893 52.8726 16.7949 52.8726 15.916C52.8726 15.0459 52.4946 14.3428 51.73 14.3428C50.9478 14.3428 50.5698 15.0459 50.5698 15.916C50.5698 16.7949 50.9478 17.4893 51.73 17.4893ZM56.9595 20.1787C55.6938 20.1787 54.894 19.6162 54.8149 18.7197H55.9312C56.0103 19.1328 56.4058 19.335 56.9771 19.335C57.645 19.335 58.0845 19.0449 58.0845 18.3418V17.4277H58.0317C57.856 17.7793 57.478 18.2188 56.6519 18.2188C55.5532 18.2188 54.6831 17.4189 54.6831 15.8633C54.6831 14.29 55.5532 13.4551 56.6606 13.4551C57.5044 13.4551 57.856 13.9561 58.0317 14.2988H58.0845V13.5166H59.1919V18.3682C59.1919 19.5898 58.2515 20.1787 56.9595 20.1787ZM56.9595 17.3398C57.6802 17.3398 58.0933 16.7949 58.0933 15.8809C58.0933 14.9756 57.689 14.3691 56.9595 14.3691C56.2124 14.3691 55.8257 15.0107 55.8257 15.8809C55.8257 16.7598 56.2212 17.3398 56.9595 17.3398ZM61.3892 11.9258V18.2891H60.2642V11.9258H61.3892ZM64.5796 18.3857C63.1382 18.3857 62.2593 17.4277 62.2593 15.9336C62.2593 14.457 63.1558 13.4551 64.5181 13.4551C65.687 13.4551 66.6978 14.1846 66.6978 15.8633V16.2148H63.3667C63.3799 17.0278 63.8589 17.5068 64.5884 17.5068C65.0806 17.5068 65.4146 17.2959 65.5552 17.0146H66.6538C66.4517 17.8408 65.687 18.3857 64.5796 18.3857ZM63.3755 15.4502H65.6255C65.6167 14.7998 65.186 14.3252 64.5356 14.3252C63.8589 14.3252 63.4106 14.8394 63.3755 15.4502ZM69.7563 18.2891V11.9258H72.147C73.606 11.9258 74.3882 12.8135 74.3882 14.0352C74.3882 15.2568 73.5972 16.1357 72.1294 16.1357H70.8989V18.2891H69.7563ZM70.8989 15.1953H71.9712C72.8325 15.1953 73.2192 14.7119 73.2192 14.0352C73.2192 13.3496 72.8325 12.8838 71.9712 12.8838H70.8989V15.1953ZM76.3833 11.9258V18.2891H75.2583V11.9258H76.3833ZM77.2358 16.9443C77.2358 15.8721 78.1235 15.5557 79.0112 15.5029C79.3408 15.481 80.0264 15.4414 80.2329 15.4326V15.0547C80.2329 14.5801 79.9253 14.3076 79.3716 14.3076C78.8706 14.3076 78.563 14.5361 78.4751 14.8789H77.394C77.4731 14.0703 78.2026 13.4551 79.3979 13.4551C80.3032 13.4551 81.3491 13.8242 81.3491 15.0986V18.2891H80.2769V17.6299H80.2417C80.0308 18.0342 79.5825 18.3857 78.8354 18.3857C77.9214 18.3857 77.2358 17.8848 77.2358 16.9443ZM78.3169 16.9355C78.3169 17.3486 78.6509 17.5596 79.1255 17.5596C79.8022 17.5596 80.2417 17.1113 80.2417 16.5752V16.1797L79.187 16.25C78.6509 16.2939 78.3169 16.5137 78.3169 16.9355ZM82.9048 20.082C82.6851 20.082 82.4653 20.0732 82.3247 20.0557V19.1592C82.4653 19.168 82.6499 19.1768 82.7993 19.1768C83.0718 19.1768 83.3003 19.1504 83.4937 18.6406L83.5903 18.3857L81.8501 13.5166H83.0366L84.144 17.1201H84.1968L85.3042 13.5166H86.4907L84.5747 18.8691C84.3022 19.6338 83.8013 20.082 82.9048 20.082Z" fill="#222222"/>
</g>
<defs>
<linearGradient id="paint0_linear_1135_6518" x1="31.3632" y1="14.9217" x2="16.1203" y2="14.9217" gradientUnits="userSpaceOnUse">
<stop stop-color="#FEE000"/>
<stop offset="0.4" stop-color="#FBBD0D"/>
<stop offset="0.77" stop-color="#F9A417"/>
<stop offset="1" stop-color="#F99B1B"/>
</linearGradient>
<linearGradient id="paint1_linear_1135_6518" x1="26.9583" y1="15.4746" x2="11.9774" y2="30.0924" gradientUnits="userSpaceOnUse">
<stop stop-color="#EF4547"/>
<stop offset="1" stop-color="#C6176D"/>
</linearGradient>
<linearGradient id="paint2_linear_1135_6518" x1="12.0801" y1="-1.2473" x2="24.3127" y2="10.6887" gradientUnits="userSpaceOnUse">
<stop stop-color="#269E6F"/>
<stop offset="0.05" stop-color="#2BA06E"/>
<stop offset="0.47" stop-color="#52B26A"/>
<stop offset="0.8" stop-color="#6BBC68"/>
<stop offset="1" stop-color="#74C168"/>
</linearGradient>
<clipPath id="clip0_1135_6518">
<rect width="76.8879" height="20" fill="white" transform="translate(12.0557 4.78906)"/>
</clipPath>
</defs>
</svg>
