<svg width="21" height="20" viewBox="0 0 21 20" fill="none" xmlns="http://www.w3.org/2000/svg">
<path d="M11.3872 18.9258C11.2227 18.9233 11.0598 18.8944 10.9045 18.8401C10.4209 18.6363 9.98639 18.3312 9.63077 17.9453C9.27515 17.5593 9.00614 17.1016 8.84254 16.603C8.39362 15.3286 8.36096 13.9447 8.74767 12.6501H3.34728C2.87628 12.6532 2.42256 12.471 2.08473 12.1428C1.7469 11.8146 1.55253 11.3667 1.54204 10.8958C1.77719 10.7761 1.98273 10.6061 2.14472 10.3979C2.3067 10.1896 2.42004 9.94819 2.47814 9.69082C2.53624 9.43345 2.53774 9.16644 2.48093 8.90879C2.42413 8.65113 2.31123 8.40916 2.1503 8.20008C2.14866 7.89348 2.22602 7.59174 2.3763 7.32449C2.52658 7.05724 2.74405 6.8337 3.00688 6.67581V6.66579C2.83181 6.46013 2.70675 6.21717 2.63997 5.95547C2.5732 5.69377 2.5667 5.42026 2.62184 5.15586C2.67698 4.89147 2.79224 4.64318 2.95805 4.42998C3.12387 4.21679 3.33618 4.04432 3.57887 3.92579C3.37485 3.66109 3.24934 3.34416 3.21754 3.01148C3.18574 2.6788 3.24873 2.34393 3.3989 2.04538C3.54907 1.74683 3.7811 1.49674 4.06715 1.32395C4.3532 1.15115 4.68167 1.06265 5.01581 1.06865H13.8523V13.1858C13.338 13.8044 12.8526 14.3101 12.7097 14.4501C12.6212 15.8372 12.509 17.6401 12.5033 17.7587C12.5038 17.7644 12.5038 17.7701 12.5033 17.7758C12.5039 17.7791 12.5039 17.7825 12.5033 17.7858V17.7929C12.4838 17.9844 12.4243 18.1697 12.3289 18.3368C12.2334 18.5038 12.1031 18.649 11.948 18.763C11.7806 18.8705 11.5861 18.927 11.3872 18.9258ZM18.7491 12.1872H16.0886C15.8059 12.1873 15.5275 12.1118 15.2837 11.9687V1.07008H18.7505C19.177 1.07046 19.5859 1.24004 19.8875 1.54162C20.189 1.84321 20.3586 2.25216 20.359 2.67867V10.5787C20.359 11.0057 20.1894 11.4152 19.8875 11.7171C19.5855 12.019 19.1761 12.1872 18.7491 12.1872Z" stroke="#737980" stroke-width="1.1"/>
</svg>
