<svg width="141" height="56" viewBox="0 0 141 56" fill="none" xmlns="http://www.w3.org/2000/svg">
<rect x="0.5" width="140" height="56" rx="15" fill="#EBF1FF"/>
<g clip-path="url(#clip0_624_5931)">
<path d="M56.1832 28.7756C56.1653 25.6753 58.5888 24.1818 58.6965 24.1062C57.3142 21.9889 55.1779 21.7054 54.4239 21.6865C52.6287 21.4974 50.8873 22.8207 49.9718 22.8207C49.0562 22.8207 47.638 21.7054 46.1121 21.7432C44.1553 21.781 42.3422 22.9719 41.3368 24.8057C39.2724 28.5676 40.8162 34.1066 42.791 37.1502C43.7783 38.6436 44.9452 40.3072 46.4532 40.2505C47.9432 40.1938 48.4818 39.2486 50.277 39.2486C52.0722 39.2486 52.5748 40.2505 54.1187 40.2127C55.7165 40.1938 56.7038 38.7192 57.6732 37.2069C58.8222 35.5055 59.271 33.823 59.2889 33.7285C59.253 33.7285 56.2012 32.4808 56.1653 28.7756H56.1832Z" fill="#333333"/>
<path d="M53.2749 19.6821C54.0648 18.6424 54.6213 17.2056 54.4598 15.75C53.3108 15.8067 51.8567 16.5818 51.0309 17.6215C50.2949 18.5289 49.6306 20.0035 49.8102 21.4024C51.1027 21.4969 52.4312 20.7218 53.2749 19.6821Z" fill="#333333"/>
<path d="M78.6052 34.8427H76.3432L75.1045 30.7405H70.796L69.6112 34.8427H67.4031L71.6757 20.8535H74.3146L78.6052 34.8427ZM74.7275 29.0202L73.5965 25.3716C73.4709 24.9936 73.2554 24.124 72.9323 22.7439H72.8964C72.7707 23.33 72.5553 24.2185 72.2681 25.3716L71.173 29.0202H74.7455H74.7275Z" fill="#333333"/>
<path d="M89.5924 29.683C89.5924 31.4033 89.1435 32.7644 88.2639 33.7474C87.474 34.6359 86.5046 35.0707 85.3198 35.0707C84.0631 35.0707 83.1476 34.5981 82.591 33.634H82.5551V38.9461H80.4368V28.0761C80.4368 26.9986 80.4188 25.8832 80.365 24.749H82.232L82.3577 26.3558H82.3936C83.1117 25.146 84.1888 24.541 85.6249 24.541C86.7559 24.541 87.6894 25.0136 88.4434 25.9588C89.1974 26.9041 89.5744 28.1328 89.5744 29.683H89.5924ZM87.4381 29.7586C87.4381 28.7756 87.2227 27.9627 86.8098 27.3389C86.343 26.6772 85.7327 26.3369 84.9607 26.3369C84.4401 26.3369 83.9554 26.526 83.5246 26.8852C83.0937 27.2443 82.8244 27.7358 82.6808 28.3219C82.609 28.6054 82.5731 28.8323 82.5731 29.0024V30.6849C82.5731 31.4222 82.7885 32.046 83.2194 32.5375C83.6502 33.048 84.2067 33.2937 84.8889 33.2937C85.6968 33.2937 86.3071 32.9723 86.7559 32.3107C87.2047 31.6679 87.4202 30.7983 87.4202 29.7397L87.4381 29.7586Z" fill="#333333"/>
<path d="M100.615 29.683C100.615 31.4033 100.184 32.7644 99.2862 33.7474C98.4964 34.6359 97.5269 35.0707 96.3421 35.0707C95.0855 35.0707 94.1699 34.5981 93.6134 33.634H93.5775V38.9461H91.4412V28.0761C91.4412 26.9986 91.4232 25.8832 91.3694 24.749H93.2364L93.3621 26.3558H93.398C94.0981 25.146 95.1752 24.541 96.6293 24.541C97.7603 24.541 98.6938 25.0136 99.4658 25.9588C100.22 26.9041 100.597 28.1328 100.597 29.683H100.615ZM98.4425 29.7586C98.4425 28.7756 98.2271 27.9627 97.8142 27.3389C97.3474 26.6772 96.7371 26.3369 95.9651 26.3369C95.4445 26.3369 94.9598 26.526 94.5289 26.8852C94.0981 27.2443 93.8288 27.7358 93.6852 28.3219C93.6134 28.6054 93.5954 28.8323 93.5954 29.0024V30.6849C93.5954 31.4222 93.8109 32.046 94.2417 32.5375C94.6726 33.048 95.2291 33.2937 95.9113 33.2937C96.7191 33.2937 97.3295 32.9723 97.7783 32.3107C98.2271 31.6679 98.4425 30.7983 98.4425 29.7397V29.7586Z" fill="#333333"/>
</g>
<defs>
<clipPath id="clip0_624_5931">
<rect width="60.2292" height="24.5" fill="white" transform="translate(40.3855 15.75)"/>
</clipPath>
</defs>
</svg>
