<svg width="201" height="56" viewBox="0 0 201 56" fill="none" xmlns="http://www.w3.org/2000/svg">
<rect x="0.636017" y="0.0507812" width="199.65" height="55.902" rx="27.951" fill="white"/>
<g clip-path="url(#clip0_1178_2760)">
<path d="M61.1048 26.66C61.0804 22.4259 64.3716 20.3863 64.5178 20.283C62.6407 17.3915 59.7396 17.0042 58.7157 16.9784C56.2778 16.7202 53.9131 18.5274 52.6697 18.5274C51.4264 18.5274 49.5005 17.0042 47.4283 17.0558C44.771 17.1075 42.3088 18.734 40.9435 21.2383C38.14 26.3761 40.2366 33.9407 42.9182 38.0973C44.2591 40.1369 45.8437 42.4089 47.8915 42.3315C49.9149 42.254 50.6463 40.9631 53.0842 40.9631C55.5221 40.9631 56.2047 42.3315 58.3012 42.2798C60.471 42.254 61.8118 40.2402 63.1282 38.1748C64.6885 35.8512 65.298 33.5534 65.3223 33.4243C65.2736 33.4243 61.1292 31.7203 61.0804 26.66H61.1048Z" fill="#333333"/>
<path d="M57.1544 14.2471C58.2271 12.8271 58.9828 10.8649 58.7634 8.87695C57.2032 8.95441 55.2285 10.0129 54.1071 11.4329C53.1075 12.6722 52.2055 14.686 52.4493 16.5965C54.2046 16.7256 56.0086 15.667 57.1544 14.2471Z" fill="#333333"/>
<path d="M76.4324 32.1055H73.8533L78.5848 18.6719H81.5535L86.3035 32.1055H83.7244L82.6111 28.7842H77.5457L76.4324 32.1055ZM78.1951 26.8359H81.9617L80.1248 21.418H80.0135L78.1951 26.8359ZM87.7879 35.8906V22.0303H90.1072V23.6816H90.2557C90.6268 22.958 91.369 21.9004 93.1502 21.9004C95.4695 21.9004 97.3065 23.7188 97.3065 27.0771C97.3065 30.3984 95.5252 32.291 93.1502 32.291C91.4061 32.291 90.6268 31.252 90.2557 30.5098H90.1629V35.8906H87.7879ZM90.1072 27.0586C90.1072 29.0254 90.9608 30.3428 92.5008 30.3428C94.0594 30.3428 94.8943 28.9697 94.8943 27.0586C94.8943 25.1846 94.0779 23.8301 92.5008 23.8301C90.9608 23.8301 90.1072 25.1104 90.1072 27.0586ZM99.1619 35.8906V22.0303H101.481V23.6816H101.63C102.001 22.958 102.743 21.9004 104.524 21.9004C106.844 21.9004 108.68 23.7188 108.68 27.0771C108.68 30.3984 106.899 32.291 104.524 32.291C102.78 32.291 102.001 31.252 101.63 30.5098H101.537V35.8906H99.1619ZM101.481 27.0586C101.481 29.0254 102.335 30.3428 103.875 30.3428C105.433 30.3428 106.268 28.9697 106.268 27.0586C106.268 25.1846 105.452 23.8301 103.875 23.8301C102.335 23.8301 101.481 25.1104 101.481 27.0586ZM122.467 22.3643C122.355 21.2139 121.372 20.5459 119.925 20.5459C118.403 20.5459 117.475 21.2881 117.475 22.29C117.475 23.4219 118.663 23.8857 119.776 24.1455L121.038 24.4795C123.042 24.9434 124.971 26.001 124.971 28.3389C124.971 30.6953 123.116 32.3096 119.888 32.3096C116.752 32.3096 114.785 30.8066 114.674 28.1533H117.049C117.16 29.5635 118.347 30.25 119.869 30.25C121.465 30.25 122.559 29.4707 122.559 28.3203C122.559 27.2627 121.576 26.8174 120.129 26.4463L118.607 26.0566C116.399 25.4814 115.026 24.3682 115.026 22.4385C115.026 20.0635 117.141 18.4863 119.962 18.4863C122.819 18.4863 124.749 20.1006 124.786 22.3643H122.467ZM131.892 22.0303V23.8486H129.907V29.0811C129.907 30.0459 130.389 30.25 130.983 30.25C131.262 30.25 131.725 30.2314 132.022 30.2129V32.1426C131.744 32.1982 131.28 32.2354 130.686 32.2354C128.905 32.2354 127.532 31.3633 127.551 29.4707V23.8486H126.103V22.0303H127.551V19.6182H129.907V22.0303H131.892ZM137.997 32.3096C135.065 32.3096 133.173 30.2314 133.173 27.1143C133.173 23.9785 135.065 21.9004 137.997 21.9004C140.947 21.9004 142.821 23.9785 142.821 27.1143C142.821 30.2314 140.947 32.3096 137.997 32.3096ZM138.015 30.417C139.63 30.417 140.428 28.9512 140.428 27.0957C140.428 25.2588 139.63 23.7744 138.015 23.7744C136.364 23.7744 135.566 25.2588 135.566 27.0957C135.566 28.9512 136.364 30.417 138.015 30.417ZM144.658 32.1055V22.0303H146.959V23.7002H147.07C147.423 22.5498 148.406 21.8818 149.556 21.8818C149.816 21.8818 150.187 21.9004 150.41 21.9375V24.127C150.206 24.0527 149.705 23.9785 149.315 23.9785C147.998 23.9785 147.033 24.8877 147.033 26.168V32.1055H144.658ZM155.958 32.3096C152.915 32.3096 151.059 30.2871 151.059 27.1328C151.059 24.0156 152.952 21.9004 155.828 21.9004C158.296 21.9004 160.43 23.4404 160.43 26.9844V27.7266H153.397C153.425 29.4429 154.436 30.4541 155.976 30.4541C157.015 30.4541 157.721 30.0088 158.017 29.415H160.337C159.91 31.1592 158.296 32.3096 155.958 32.3096ZM153.416 26.1123H158.166C158.147 24.7393 157.238 23.7373 155.865 23.7373C154.436 23.7373 153.49 24.8228 153.416 26.1123Z" fill="#222222"/>
</g>
<defs>
<clipPath id="clip0_1178_2760">
<rect width="121.695" height="41.4422" fill="white" transform="translate(39.6136 4.88477)"/>
</clipPath>
</defs>
</svg>
