<svg width="85" height="85" viewBox="0 0 85 85" fill="none" xmlns="http://www.w3.org/2000/svg">
<g clip-path="url(#clip0_717_4806)">
<path d="M42.491 84.9819C65.9581 84.9819 84.9819 65.9581 84.9819 42.491C84.9819 19.0239 65.9581 0 42.491 0C19.0239 0 0 19.0239 0 42.491C0 65.9581 19.0239 84.9819 42.491 84.9819Z" fill="#3B5998"/>
<path d="M46.8431 55.9624C46.8431 52.7119 46.8611 49.4795 46.8431 46.229C46.8431 45.3983 47.0417 45.0913 47.9265 45.1275C49.6963 45.1997 51.466 45.1275 53.2537 45.1636C53.9038 45.1636 54.1566 44.983 54.2469 44.2968C54.5539 41.9131 54.7526 39.5114 55.3304 37.1818C55.5652 36.2248 55.2943 36.1345 54.6442 36.1345C52.4411 36.1525 50.238 36.0984 48.0168 36.1706C47.15 36.1886 46.7889 36.0261 46.825 35.051C46.9153 33.3174 46.825 31.5838 46.8611 29.8683C46.9333 27.5207 48.7753 25.6065 51.1229 25.4801C52.405 25.4079 53.6691 25.426 54.9512 25.444C55.4207 25.444 55.7819 25.0828 55.7819 24.6133C55.7638 22.5728 55.7819 20.5502 55.7819 18.5097C55.7819 18.1124 55.818 17.7512 55.2401 17.679C51.9355 17.2456 48.6308 16.7761 45.3262 17.5706C40.7755 18.6722 37.8501 22.1032 37.2903 26.7984C36.9833 29.4349 37.1097 32.0714 37.1277 34.7079C37.1277 35.7914 36.9472 36.2428 35.7373 36.1525C33.8773 36.0261 32.0173 36.1525 30.1573 36.0984C29.3266 36.0803 29.1641 36.3873 29.2363 37.3263C29.3988 39.4933 29.4169 41.6783 29.2363 43.8634C29.1641 44.8566 29.3266 45.1816 30.1753 45.1455C32.1617 45.1094 34.1481 45.1455 36.1526 45.1094C36.8749 45.1094 37.1277 45.29 37.1277 46.0484C37.1097 51.5742 37.1277 63.6191 37.1277 66.8515C37.1277 67.4113 37.5792 67.8628 38.139 67.8628H45.8499C46.4097 67.8628 46.8611 67.4113 46.8611 66.8515C46.8611 64.8109 46.8611 58.4183 46.8611 55.9443L46.8431 55.9624Z" fill="white"/>
</g>
<defs>
<clipPath id="clip0_717_4806">
<rect width="85" height="85" fill="white"/>
</clipPath>
</defs>
</svg>
