<svg width="101" height="29" viewBox="0 0 101 29" fill="none" xmlns="http://www.w3.org/2000/svg">
<rect x="0.5" y="0.789062" width="100" height="28" rx="14" fill="white"/>
<g clip-path="url(#clip0_1135_6519)">
<path d="M31.826 14.1178C31.8138 11.9971 33.4623 10.9755 33.5355 10.9237C32.5953 9.47541 31.1422 9.28144 30.6294 9.2685C29.4083 9.13919 28.2238 10.0444 27.6011 10.0444C26.9783 10.0444 26.0137 9.28144 24.9758 9.3073C23.6448 9.33316 22.4115 10.1478 21.7277 11.4022C20.3235 13.9756 21.3736 17.7645 22.7168 19.8465C23.3884 20.8681 24.1821 22.0061 25.2078 21.9673C26.2213 21.9285 26.5876 21.2819 27.8087 21.2819C29.0298 21.2819 29.3717 21.9673 30.4218 21.9414C31.5085 21.9285 32.1801 20.9198 32.8395 19.8853C33.621 18.7215 33.9263 17.5705 33.9385 17.5059C33.9141 17.5059 31.8382 16.6524 31.8138 14.1178H31.826Z" fill="#333333"/>
<path d="M29.8475 7.9007C30.3848 7.18946 30.7634 6.20667 30.6535 5.21094C29.872 5.24973 28.8829 5.77992 28.3212 6.49116C27.8206 7.11187 27.3688 8.12053 27.4909 9.07747C28.37 9.14212 29.2736 8.61193 29.8475 7.9007Z" fill="#333333"/>
<path d="M39.5762 17.0898H38.3545L40.5957 10.7266H42.002L44.252 17.0898H43.0303L42.5029 15.5166H40.1035L39.5762 17.0898ZM40.4111 14.5938H42.1953L41.3252 12.0273H41.2725L40.4111 14.5938ZM44.9551 18.8828V12.3174H46.0537V13.0996H46.124C46.2998 12.7568 46.6514 12.2559 47.4951 12.2559C48.5938 12.2559 49.4639 13.1172 49.4639 14.708C49.4639 16.2812 48.6201 17.1777 47.4951 17.1777C46.6689 17.1777 46.2998 16.6855 46.124 16.334H46.0801V18.8828H44.9551ZM46.0537 14.6992C46.0537 15.6309 46.458 16.2549 47.1875 16.2549C47.9258 16.2549 48.3213 15.6045 48.3213 14.6992C48.3213 13.8115 47.9346 13.1699 47.1875 13.1699C46.458 13.1699 46.0537 13.7764 46.0537 14.6992ZM50.3428 18.8828V12.3174H51.4414V13.0996H51.5117C51.6875 12.7568 52.0391 12.2559 52.8828 12.2559C53.9814 12.2559 54.8516 13.1172 54.8516 14.708C54.8516 16.2812 54.0078 17.1777 52.8828 17.1777C52.0566 17.1777 51.6875 16.6855 51.5117 16.334H51.4678V18.8828H50.3428ZM51.4414 14.6992C51.4414 15.6309 51.8457 16.2549 52.5752 16.2549C53.3135 16.2549 53.709 15.6045 53.709 14.6992C53.709 13.8115 53.3223 13.1699 52.5752 13.1699C51.8457 13.1699 51.4414 13.7764 51.4414 14.6992ZM61.3818 12.4756C61.3291 11.9307 60.8633 11.6143 60.1777 11.6143C59.457 11.6143 59.0176 11.9658 59.0176 12.4404C59.0176 12.9766 59.5801 13.1963 60.1074 13.3193L60.7051 13.4775C61.6543 13.6973 62.5684 14.1982 62.5684 15.3057C62.5684 16.4219 61.6895 17.1865 60.1602 17.1865C58.6748 17.1865 57.7432 16.4746 57.6904 15.2178H58.8154C58.8682 15.8857 59.4307 16.2109 60.1514 16.2109C60.9072 16.2109 61.4258 15.8418 61.4258 15.2969C61.4258 14.7959 60.96 14.585 60.2744 14.4092L59.5537 14.2246C58.5078 13.9521 57.8574 13.4248 57.8574 12.5107C57.8574 11.3857 58.8594 10.6387 60.1953 10.6387C61.5488 10.6387 62.4629 11.4033 62.4805 12.4756H61.3818ZM65.8467 12.3174V13.1787H64.9062V15.6572C64.9062 16.1143 65.1348 16.2109 65.416 16.2109C65.5479 16.2109 65.7676 16.2021 65.9082 16.1934V17.1074C65.7764 17.1338 65.5566 17.1514 65.2754 17.1514C64.4316 17.1514 63.7812 16.7383 63.79 15.8418V13.1787H63.1045V12.3174H63.79V11.1748H64.9062V12.3174H65.8467ZM68.7383 17.1865C67.3496 17.1865 66.4531 16.2021 66.4531 14.7256C66.4531 13.2402 67.3496 12.2559 68.7383 12.2559C70.1357 12.2559 71.0234 13.2402 71.0234 14.7256C71.0234 16.2021 70.1357 17.1865 68.7383 17.1865ZM68.7471 16.29C69.5117 16.29 69.8896 15.5957 69.8896 14.7168C69.8896 13.8467 69.5117 13.1436 68.7471 13.1436C67.9648 13.1436 67.5869 13.8467 67.5869 14.7168C67.5869 15.5957 67.9648 16.29 68.7471 16.29ZM71.8936 17.0898V12.3174H72.9834V13.1084H73.0361C73.2031 12.5635 73.6689 12.2471 74.2139 12.2471C74.3369 12.2471 74.5127 12.2559 74.6182 12.2734V13.3105C74.5215 13.2754 74.2842 13.2402 74.0996 13.2402C73.4756 13.2402 73.0186 13.6709 73.0186 14.2773V17.0898H71.8936ZM77.2461 17.1865C75.8047 17.1865 74.9258 16.2285 74.9258 14.7344C74.9258 13.2578 75.8223 12.2559 77.1846 12.2559C78.3535 12.2559 79.3643 12.9854 79.3643 14.6641V15.0156H76.0332C76.0464 15.8286 76.5254 16.3076 77.2549 16.3076C77.7471 16.3076 78.0811 16.0967 78.2217 15.8154H79.3203C79.1182 16.6416 78.3535 17.1865 77.2461 17.1865ZM76.042 14.251H78.292C78.2832 13.6006 77.8525 13.126 77.2021 13.126C76.5254 13.126 76.0771 13.6401 76.042 14.251Z" fill="#222222"/>
</g>
<defs>
<clipPath id="clip0_1135_6519">
<rect width="58.877" height="20.7582" fill="white" transform="translate(21.0615 3.21094)"/>
</clipPath>
</defs>
</svg>
