<svg width="85" height="85" viewBox="0 0 85 85" fill="none" xmlns="http://www.w3.org/2000/svg">
<g clip-path="url(#clip0_921_5388)">
<path d="M42.491 84.9819C65.9581 84.9819 84.9819 65.9581 84.9819 42.491C84.9819 19.0239 65.9581 0 42.491 0C19.0239 0 0 19.0239 0 42.491C0 65.9581 19.0239 84.9819 42.491 84.9819Z" fill="black"/>
<path d="M20.4419 21.507C20.7669 21.4709 20.9475 21.4528 21.1281 21.4528C24.9203 21.4528 28.7125 21.4528 32.5047 21.4528C33.0465 21.4528 33.3896 21.6334 33.6966 22.0668C37.2902 26.8884 40.9199 31.7099 44.5135 36.5314C44.983 37.1454 45.001 37.1635 45.5247 36.5856C50.0212 31.7821 54.5177 26.9786 58.9961 22.1571C59.4657 21.6515 59.9352 21.4167 60.6214 21.4528C61.434 21.507 62.2647 21.4528 63.0773 21.4528C63.0954 21.5251 63.1134 21.5792 63.1315 21.6515C62.6439 22.1752 62.1744 22.7169 61.6868 23.2406C56.8292 28.4414 51.9896 33.6241 47.1319 38.8068C46.7346 39.2221 46.7166 39.511 47.0597 39.9625C50.8338 44.9646 54.5899 50.0029 58.3461 55.023C60.3144 57.6595 62.2827 60.296 64.2511 62.9325C64.3414 63.0589 64.4136 63.2034 64.54 63.4382C64.233 63.4743 64.0163 63.5285 63.8177 63.5285C60.0435 63.5285 56.2694 63.5285 52.4952 63.5285C51.9896 63.5285 51.6465 63.3659 51.3395 62.9506C48.4321 59.0139 45.4886 55.0953 42.5632 51.1586C41.6603 49.9487 40.7393 48.7749 39.8725 47.565C39.5475 47.0955 39.3127 47.0955 38.9154 47.5108C36.2789 50.364 33.6424 53.1811 30.9879 56.0162C28.7848 58.3819 26.5817 60.7294 24.3424 63.077C24.1077 63.3118 23.7104 63.4923 23.3854 63.5104C22.4644 63.5646 21.5254 63.5285 20.4057 63.5285C20.6224 63.2215 20.7308 63.0409 20.8753 62.8784C25.6426 57.786 30.41 52.6755 35.1774 47.5831C35.8816 46.8427 36.5678 46.0842 37.2721 45.3619C37.6513 44.9827 37.6513 44.6937 37.3263 44.2604C33.6966 39.4388 30.0849 34.5811 26.4552 29.7415C24.5411 27.1773 22.6088 24.595 20.6947 22.0307C20.6044 21.9043 20.5322 21.7598 20.3696 21.4889L20.4419 21.507ZM25.9316 24.288C26.1483 24.595 26.2566 24.7936 26.4011 24.9742C27.4846 26.4188 28.5861 27.8635 29.6696 29.3262C34.0578 35.1771 38.4278 41.0279 42.816 46.8968C46.1387 51.3392 49.4614 55.7634 52.7841 60.2058C53.0731 60.585 53.38 60.7836 53.8857 60.7836C55.4567 60.7656 57.0097 60.7836 58.5808 60.7836C58.7794 60.7836 58.9781 60.7475 59.2851 60.7114C59.1045 60.4405 59.0142 60.2599 58.8878 60.1155C57.9127 58.8153 56.9556 57.5151 55.9804 56.2149C52.2063 51.1766 48.4321 46.1565 44.6579 41.1182C40.5768 35.6646 36.4776 30.2111 32.3964 24.7575C32.1255 24.3963 31.8366 24.2519 31.4032 24.2699C29.8141 24.2699 28.243 24.2699 26.6539 24.2699C26.4733 24.2699 26.2927 24.306 25.9677 24.3241L25.9316 24.288Z" fill="white"/>
</g>
<defs>
<clipPath id="clip0_921_5388">
<rect width="85" height="85" fill="white"/>
</clipPath>
</defs>
</svg>
