<svg width="201" height="56" viewBox="0 0 201 56" fill="none" xmlns="http://www.w3.org/2000/svg">
<rect x="0.986023" y="0.0507812" width="199.65" height="55.902" rx="27.951" fill="white"/>
<g clip-path="url(#clip0_1178_2740)">
<path d="M33.6581 11.6848C33.2805 12.0976 33.0792 12.7167 33.0792 13.5164V42.4606C33.0792 43.2603 33.3057 43.9052 33.6581 44.2922L33.7588 44.3954L49.5917 28.1691V27.7821L33.7588 11.6074L33.6581 11.7106" fill="#5AC9F4"/>
<mask id="mask0_1178_2740" style="mask-type:luminance" maskUnits="userSpaceOnUse" x="49" y="22" width="14" height="12">
<path d="M54.8527 33.6143L49.5919 28.1969V27.8099L54.8779 22.3926L61.2463 26.1073C63.0335 27.1392 63.0335 28.8418 61.2463 29.8737L55.0037 33.5111L54.8779 33.5885" fill="white"/>
</mask>
<g mask="url(#mask0_1178_2740)">
<path d="M62.9834 22.418H49.567V33.6138H62.9834V22.418Z" fill="url(#paint0_linear_1178_2740)"/>
</g>
<mask id="mask1_1178_2740" style="mask-type:luminance" maskUnits="userSpaceOnUse" x="33" y="28" width="22" height="17">
<path d="M54.9802 33.5381L49.5935 28.0176L33.6851 44.3213C34.264 44.9662 35.2457 45.0436 36.3281 44.3986L54.9802 33.5381Z" fill="white"/>
</mask>
<g mask="url(#mask1_1178_2740)">
<path d="M44.3323 17.0764L25.3586 36.5215L44.3323 55.9666L63.306 36.5215L44.3323 17.0764Z" fill="url(#paint1_linear_1178_2740)"/>
</g>
<mask id="mask2_1178_2740" style="mask-type:luminance" maskUnits="userSpaceOnUse" x="33" y="11" width="22" height="17">
<path d="M54.9789 22.4674L36.3268 11.6069C35.2444 10.962 34.2627 11.0394 33.6838 11.6843L49.5922 27.988L54.9789 22.4674Z" fill="white"/>
</mask>
<g mask="url(#mask2_1178_2740)">
<path d="M44.3392 0.0294892L25.3655 19.4746L44.3392 38.9197L63.3129 19.4746L44.3392 0.0294892Z" fill="url(#paint2_linear_1178_2740)"/>
</g>
<path d="M81.9578 25.3545C81.531 23.9258 80.4177 23.0537 78.7849 23.0537C76.614 23.0537 75.0554 24.7422 75.0554 27.7666C75.0554 30.8281 76.5955 32.5166 78.8406 32.5166C80.863 32.5166 82.1619 31.292 82.199 29.3809H79.0818V27.4697H84.5369V29.084C84.5369 32.5352 82.1619 34.6875 78.8406 34.6875C75.1296 34.6875 72.6248 32.0527 72.6248 27.7852C72.6248 23.4805 75.241 20.8828 78.7664 20.8828C81.7351 20.8828 84.0173 22.7197 84.4255 25.3545H81.9578ZM91.0125 34.7061C88.0808 34.7061 86.1882 32.6279 86.1882 29.5107C86.1882 26.375 88.0808 24.2969 91.0125 24.2969C93.9626 24.2969 95.8367 26.375 95.8367 29.5107C95.8367 32.6279 93.9626 34.7061 91.0125 34.7061ZM91.031 32.8135C92.6453 32.8135 93.4431 31.3477 93.4431 29.4922C93.4431 27.6553 92.6453 26.1709 91.031 26.1709C89.3796 26.1709 88.5818 27.6553 88.5818 29.4922C88.5818 31.3477 89.3796 32.8135 91.031 32.8135ZM102.071 34.7061C99.1394 34.7061 97.2468 32.6279 97.2468 29.5107C97.2468 26.375 99.1394 24.2969 102.071 24.2969C105.021 24.2969 106.895 26.375 106.895 29.5107C106.895 32.6279 105.021 34.7061 102.071 34.7061ZM102.09 32.8135C103.704 32.8135 104.502 31.3477 104.502 29.4922C104.502 27.6553 103.704 26.1709 102.09 26.1709C100.438 26.1709 99.6404 27.6553 99.6404 29.4922C99.6404 31.3477 100.438 32.8135 102.09 32.8135ZM113.13 38.4912C110.458 38.4912 108.769 37.3037 108.602 35.4111H110.959C111.126 36.2832 111.961 36.71 113.167 36.71C114.577 36.71 115.505 36.0977 115.505 34.6133V32.6836H115.393C115.022 33.4258 114.224 34.3535 112.48 34.3535C110.161 34.3535 108.324 32.665 108.324 29.3809C108.324 26.0596 110.161 24.2969 112.499 24.2969C114.28 24.2969 115.022 25.3545 115.393 26.0781H115.505V24.4268H117.843V34.6689C117.843 37.248 115.857 38.4912 113.13 38.4912ZM113.13 32.498C114.651 32.498 115.523 31.3477 115.523 29.418C115.523 27.5068 114.67 26.2266 113.13 26.2266C111.552 26.2266 110.736 27.5811 110.736 29.418C110.736 31.2734 111.571 32.498 113.13 32.498ZM122.481 21.0684V34.502H120.106V21.0684H122.481ZM129.217 34.7061C126.174 34.7061 124.318 32.6836 124.318 29.5293C124.318 26.4121 126.211 24.2969 129.087 24.2969C131.554 24.2969 133.688 25.8369 133.688 29.3809V30.123H126.656C126.684 31.8394 127.695 32.8506 129.235 32.8506C130.274 32.8506 130.979 32.4053 131.276 31.8115H133.595C133.169 33.5557 131.554 34.7061 129.217 34.7061ZM126.675 28.5088H131.425C131.406 27.1357 130.497 26.1338 129.124 26.1338C127.695 26.1338 126.749 27.2192 126.675 28.5088ZM140.145 34.502V21.0684H145.192C148.272 21.0684 149.924 22.9424 149.924 25.5215C149.924 28.1006 148.254 29.9561 145.155 29.9561H142.557V34.502H140.145ZM142.557 27.9707H144.821C146.639 27.9707 147.456 26.9502 147.456 25.5215C147.456 24.0742 146.639 23.0908 144.821 23.0908H142.557V27.9707ZM154.135 21.0684V34.502H151.76V21.0684H154.135ZM155.935 31.6631C155.935 29.3994 157.809 28.7314 159.683 28.6201C160.379 28.5737 161.826 28.4902 162.262 28.4717V27.6738C162.262 26.6719 161.613 26.0967 160.444 26.0967C159.386 26.0967 158.737 26.5791 158.552 27.3027H156.269C156.436 25.5957 157.976 24.2969 160.5 24.2969C162.411 24.2969 164.619 25.0762 164.619 27.7666V34.502H162.355V33.1104H162.281C161.836 33.9639 160.889 34.7061 159.312 34.7061C157.383 34.7061 155.935 33.6484 155.935 31.6631ZM158.218 31.6445C158.218 32.5166 158.923 32.9619 159.925 32.9619C161.353 32.9619 162.281 32.0156 162.281 30.8838V30.0488L160.054 30.1973C158.923 30.29 158.218 30.7539 158.218 31.6445ZM167.903 38.2871C167.439 38.2871 166.975 38.2686 166.678 38.2314V36.3389C166.975 36.3574 167.365 36.376 167.68 36.376C168.256 36.376 168.738 36.3203 169.146 35.2441L169.35 34.7061L165.677 24.4268H168.181L170.519 32.0342H170.631L172.969 24.4268H175.473L171.428 35.7266C170.853 37.3408 169.796 38.2871 167.903 38.2871Z" fill="#222222"/>
</g>
<defs>
<linearGradient id="paint0_linear_1178_2740" x1="60.0172" y1="28.2667" x2="29.5848" y2="28.2667" gradientUnits="userSpaceOnUse">
<stop stop-color="#FEE000"/>
<stop offset="0.4" stop-color="#FBBD0D"/>
<stop offset="0.77" stop-color="#F9A417"/>
<stop offset="1" stop-color="#F99B1B"/>
</linearGradient>
<linearGradient id="paint1_linear_1178_2740" x1="51.224" y1="29.3739" x2="21.3146" y2="58.5582" gradientUnits="userSpaceOnUse">
<stop stop-color="#EF4547"/>
<stop offset="1" stop-color="#C6176D"/>
</linearGradient>
<linearGradient id="paint2_linear_1178_2740" x1="21.5188" y1="-4.01787" x2="45.9411" y2="19.8124" gradientUnits="userSpaceOnUse">
<stop stop-color="#269E6F"/>
<stop offset="0.05" stop-color="#2BA06E"/>
<stop offset="0.47" stop-color="#52B26A"/>
<stop offset="0.8" stop-color="#6BBC68"/>
<stop offset="1" stop-color="#74C168"/>
</linearGradient>
<clipPath id="clip0_1178_2740">
<rect width="158.682" height="39.93" fill="white" transform="translate(21.4701 8.03711)"/>
</clipPath>
</defs>
</svg>
