<svg width="30" height="28" viewBox="0 0 30 28" fill="none" xmlns="http://www.w3.org/2000/svg">
<path d="M8.03508 14.0026C8.03508 15.7018 6.63839 17.1006 4.88898 17.1006C3.13958 17.1006 1.74288 15.7018 1.74288 14.0026C1.74288 12.3035 3.13958 10.9047 4.88898 10.9047C6.63839 10.9047 8.03508 12.3035 8.03508 14.0026Z" stroke="white" stroke-width="2.2" stroke-miterlimit="10"/>
<path d="M27.8127 4.8327C27.8127 6.53184 26.416 7.93063 24.6666 7.93063C22.9172 7.93063 21.5205 6.53184 21.5205 4.8327C21.5205 3.13356 22.9172 1.73477 24.6666 1.73477C26.416 1.73477 27.8127 3.13356 27.8127 4.8327Z" stroke="white" stroke-width="2.2" stroke-miterlimit="10"/>
<path d="M8.44446 12.2205L21.2222 6.10938" stroke="white" stroke-width="2.2" stroke-miterlimit="10"/>
<path d="M27.8127 23.1667C27.8127 24.8658 26.416 26.2646 24.6666 26.2646C22.9172 26.2646 21.5205 24.8658 21.5205 23.1667C21.5205 21.4675 22.9172 20.0688 24.6666 20.0688C26.416 20.0688 27.8127 21.4675 27.8127 23.1667Z" stroke="white" stroke-width="2.2" stroke-miterlimit="10"/>
<path d="M21.7778 22.2214L7.33334 15.5547" stroke="white" stroke-width="2.2" stroke-miterlimit="10"/>
</svg>
