<svg width="39" height="40" viewBox="0 0 39 40" fill="none" xmlns="http://www.w3.org/2000/svg">
<path d="M8.65805 3.68481C8.28047 4.09756 8.0791 4.71669 8.0791 5.5164V34.4606C8.0791 35.2603 8.30565 35.9052 8.65805 36.2922L8.75873 36.3954L24.5916 20.1691V19.7821L8.75873 3.60742L8.65805 3.71061" fill="#5AC9F4"/>
<mask id="mask0_1214_5752" style="mask-type:luminance" maskUnits="userSpaceOnUse" x="24" y="14" width="14" height="12">
<path d="M29.8529 25.6143L24.592 20.1969V19.8099L29.8781 14.3926L36.2465 18.1073C38.0336 19.1392 38.0336 20.8418 36.2465 21.8737L30.0039 25.5111L29.8781 25.5885" fill="white"/>
</mask>
<g mask="url(#mask0_1214_5752)">
<path d="M37.9836 14.418H24.5671V25.6138H37.9836V14.418Z" fill="url(#paint0_linear_1214_5752)"/>
</g>
<mask id="mask1_1214_5752" style="mask-type:luminance" maskUnits="userSpaceOnUse" x="8" y="20" width="22" height="17">
<path d="M29.9802 25.5381L24.5935 20.0176L8.68506 36.3213C9.264 36.9662 10.2457 37.0436 11.3281 36.3986L29.9802 25.5381Z" fill="white"/>
</mask>
<g mask="url(#mask1_1214_5752)">
<path d="M19.3323 9.07636L0.358643 28.5215L19.3323 47.9666L38.306 28.5215L19.3323 9.07636Z" fill="url(#paint1_linear_1214_5752)"/>
</g>
<mask id="mask2_1214_5752" style="mask-type:luminance" maskUnits="userSpaceOnUse" x="8" y="3" width="22" height="17">
<path d="M29.979 14.4674L11.3268 3.60689C10.2445 2.96197 9.26278 3.03936 8.68384 3.68428L24.5922 19.988L29.979 14.4674Z" fill="white"/>
</mask>
<g mask="url(#mask2_1214_5752)">
<path d="M19.3392 -7.97051L0.365479 11.4746L19.3392 30.9197L38.3129 11.4746L19.3392 -7.97051Z" fill="url(#paint2_linear_1214_5752)"/>
</g>
<defs>
<linearGradient id="paint0_linear_1214_5752" x1="35.0174" y1="20.2667" x2="4.58497" y2="20.2667" gradientUnits="userSpaceOnUse">
<stop stop-color="#FEE000"/>
<stop offset="0.4" stop-color="#FBBD0D"/>
<stop offset="0.77" stop-color="#F9A417"/>
<stop offset="1" stop-color="#F99B1B"/>
</linearGradient>
<linearGradient id="paint1_linear_1214_5752" x1="26.2241" y1="21.3739" x2="-3.68539" y2="50.5582" gradientUnits="userSpaceOnUse">
<stop stop-color="#EF4547"/>
<stop offset="1" stop-color="#C6176D"/>
</linearGradient>
<linearGradient id="paint2_linear_1214_5752" x1="-3.48123" y1="-12.0179" x2="20.9411" y2="11.8124" gradientUnits="userSpaceOnUse">
<stop stop-color="#269E6F"/>
<stop offset="0.05" stop-color="#2BA06E"/>
<stop offset="0.47" stop-color="#52B26A"/>
<stop offset="0.8" stop-color="#6BBC68"/>
<stop offset="1" stop-color="#74C168"/>
</linearGradient>
</defs>
</svg>
