<svg width="20" height="18" viewBox="0 0 20 18" fill="none" xmlns="http://www.w3.org/2000/svg">
<path d="M0.100006 11.116V2.63526C0.122032 1.97133 0.406365 1.34328 0.890585 0.888982C1.3748 0.434686 2.01934 0.191274 2.68269 0.212181H16.8854C17.5485 0.191648 18.1927 0.435228 18.6766 0.889484C19.1605 1.34374 19.4446 1.97158 19.4667 2.63526V11.116C19.4446 11.78 19.1603 12.408 18.6761 12.8623C18.1919 13.3166 17.5473 13.56 16.884 13.5391H4.28459L0.100006 17.7262V11.116Z" fill="white"/>
<path d="M4.94168 8.27659C5.61017 8.27659 6.1521 7.73417 6.1521 7.06505C6.1521 6.39594 5.61017 5.85352 4.94168 5.85352C4.27318 5.85352 3.73126 6.39594 3.73126 7.06505C3.73126 7.73417 4.27318 8.27659 4.94168 8.27659Z" fill="#727272"/>
<path d="M9.78334 8.27659C10.4518 8.27659 10.9938 7.73417 10.9938 7.06505C10.9938 6.39594 10.4518 5.85352 9.78334 5.85352C9.11484 5.85352 8.57292 6.39594 8.57292 7.06505C8.57292 7.73417 9.11484 8.27659 9.78334 8.27659Z" fill="#727272"/>
<path d="M14.625 8.27659C15.2935 8.27659 15.8354 7.73417 15.8354 7.06505C15.8354 6.39594 15.2935 5.85352 14.625 5.85352C13.9565 5.85352 13.4146 6.39594 13.4146 7.06505C13.4146 7.73417 13.9565 8.27659 14.625 8.27659Z" fill="#727272"/>
</svg>
