<svg width="20" height="26" viewBox="0 0 20 26" fill="none" xmlns="http://www.w3.org/2000/svg">
<path d="M16.1832 13.7756C16.1653 10.6753 18.5888 9.18182 18.6965 9.10621C17.3142 6.98892 15.1779 6.70536 14.4239 6.68645C12.6287 6.49741 10.8873 7.82071 9.97179 7.82071C9.05624 7.82071 7.63802 6.70536 6.1121 6.74317C4.15532 6.78097 2.34216 7.97195 1.33685 9.80567C-0.727638 13.5676 0.816239 19.1066 2.79097 22.1502C3.77833 23.6436 4.94521 25.3072 6.45319 25.2505C7.94321 25.1938 8.48177 24.2486 10.277 24.2486C12.0722 24.2486 12.5748 25.2505 14.1187 25.2127C15.7165 25.1938 16.7038 23.7192 17.6732 22.2069C18.8222 20.5055 19.271 18.823 19.2889 18.7285C19.253 18.7285 16.2012 17.4808 16.1653 13.7756H16.1832Z" fill="#333333"/>
<path d="M13.2749 4.6821C14.0648 3.64236 14.6213 2.20563 14.4598 0.75C13.3108 0.806713 11.8567 1.58179 11.0309 2.62153C10.2949 3.52894 9.63065 5.00347 9.81017 6.40239C11.1027 6.49691 12.4312 5.72184 13.2749 4.6821Z" fill="#333333"/>
</svg>
