<svg width="20" height="20" viewBox="0 0 20 20" fill="none" xmlns="http://www.w3.org/2000/svg">
<path d="M17.3986 14.8425V7.62673C17.3986 5.64594 16.6117 3.74633 15.2111 2.3457C13.8104 0.945074 11.9107 0.158203 9.92996 0.158203C7.94917 0.158203 6.04956 0.945074 4.64893 2.3457C3.24831 3.74633 2.46143 5.64594 2.46143 7.62673V14.8425C1.91479 14.8595 1.3962 15.0884 1.01525 15.4808C0.634303 15.8732 0.420829 16.3984 0.419983 16.9453V18.7496C0.419983 18.8169 0.433272 18.8836 0.459045 18.9459C0.484819 19.0081 0.522593 19.0646 0.570217 19.1122C0.61784 19.1599 0.674358 19.1976 0.736581 19.2234C0.798804 19.2492 0.865503 19.2625 0.932853 19.2625H18.9328C19.0688 19.2625 19.1993 19.2084 19.2955 19.1122C19.3916 19.0161 19.4457 18.8856 19.4457 18.7496V16.9396C19.4433 16.3927 19.2284 15.8682 18.8464 15.4769C18.4644 15.0856 17.9452 14.858 17.3986 14.8425ZM3.48857 7.62673C3.51377 5.93478 4.2036 4.32064 5.409 3.13306C6.61439 1.94548 8.23861 1.27986 9.93074 1.27986C11.6229 1.27986 13.2471 1.94548 14.4525 3.13306C15.6579 4.32064 16.3476 5.93478 16.3728 7.62673V14.841H3.48857V7.62673ZM18.4143 18.2425H1.44712V16.9453C1.4475 16.6594 1.56126 16.3853 1.76345 16.1831C1.96564 15.9809 2.23976 15.8671 2.5257 15.8667H17.3343C17.6205 15.8667 17.8949 15.9803 18.0974 16.1825C18.2999 16.3848 18.4139 16.6591 18.4143 16.9453V18.2425Z" fill="#737980" stroke="#737980" stroke-width="0.22"/>
<path d="M9.42432 3.16797C8.36042 3.25324 7.36621 3.73116 6.6351 4.50874C5.90399 5.28632 5.48826 6.30799 5.46863 7.37512C5.46863 7.51114 5.5226 7.64158 5.61877 7.73776C5.71495 7.83394 5.84539 7.88799 5.98141 7.88799C6.11743 7.88799 6.24795 7.83394 6.34413 7.73776C6.44031 7.64158 6.49428 7.51114 6.49428 7.37512C6.49428 5.04798 8.47575 4.50085 9.42432 4.19371C9.56033 4.19371 9.69077 4.13965 9.78695 4.04347C9.88313 3.9473 9.93719 3.81686 9.93719 3.68084C9.93719 3.54482 9.88313 3.41438 9.78695 3.3182C9.69077 3.22202 9.56033 3.16797 9.42432 3.16797Z" fill="#737980" stroke="#737980" stroke-width="0.22"/>
</svg>
