<svg width="22" height="24" viewBox="0 0 22 24" fill="none" xmlns="http://www.w3.org/2000/svg">
<path d="M11.2063 11.9179C10.8335 12.3066 10.5316 12.6422 10.1943 12.9602C7.24693 15.8396 4.28183 18.7014 1.33449 21.5631C1.2102 21.6868 1.08592 21.8281 0.943877 21.9341C0.855101 22.0047 0.713061 22.0754 0.642041 22.0401C0.57102 22.0047 0.5 21.8634 0.5 21.7574C0.5 20.2029 0.5 18.6484 0.5 17.0938C0.5 13.8081 0.5 10.5224 0.5 7.23667C0.5 5.57615 0.5 3.89796 0.5 2.23744C0.5 2.13145 0.57102 1.97246 0.642041 1.93713C0.713061 1.9018 0.872857 1.97246 0.961632 2.04312C3.23428 4.2336 5.48918 6.42408 7.74407 8.61456C8.82713 9.67446 9.92794 10.7344 11.011 11.7766C11.0643 11.8296 11.153 11.8649 11.2063 11.9003V11.9179Z" fill="#333333"/>
<path d="M15.5385 7.85587C14.5087 8.84512 13.4966 9.79904 12.4846 10.753C12.2183 10.5056 11.9519 10.2583 11.7034 10.0287C8.63174 7.11394 5.57787 4.18152 2.50624 1.26678C2.47073 1.23145 2.41746 1.17845 2.38195 1.14312C2.27542 1.05479 2.22216 0.931138 2.31093 0.807482C2.39971 0.683826 2.524 0.701491 2.64828 0.772152C3.05665 1.0018 3.48277 1.23145 3.89114 1.46109C7.70848 3.54558 11.5081 5.63007 15.3254 7.73222C15.3964 7.76755 15.4497 7.80288 15.5562 7.87354L15.5385 7.85587Z" fill="#333333"/>
<path d="M12.4847 13.1914C13.4968 14.163 14.5088 15.1169 15.5386 16.0885C15.29 16.2298 15.0592 16.3535 14.8462 16.4771C12.2184 17.9257 9.59066 19.3565 6.96291 20.8051C5.54251 21.5823 4.10435 22.3773 2.68394 23.1545C2.59516 23.2075 2.45312 23.2075 2.36435 23.1722C2.22231 23.1016 2.25782 22.9426 2.39986 22.7836C3.0568 22.1476 3.73149 21.5117 4.38843 20.8934C7.01618 18.4026 9.62617 15.9118 12.2539 13.4211C12.3249 13.3504 12.396 13.2797 12.5025 13.1914H12.4847Z" fill="#333333"/>
<path d="M13.7632 11.9719C14.1893 11.5656 14.6154 11.1594 15.0415 10.7531C15.6985 10.1348 16.3554 9.51649 16.9946 8.88055C17.1011 8.77456 17.1899 8.75689 17.332 8.82755C18.4683 9.4635 19.6046 10.0818 20.7409 10.7001C21.2381 10.965 21.5044 11.4067 21.5044 11.9719C21.5044 12.5549 21.2203 12.9789 20.7232 13.2615C19.5868 13.8798 18.4683 14.4981 17.332 15.1163C17.2254 15.1693 17.1544 15.2047 17.0479 15.1163C15.9826 14.0918 14.9173 13.0849 13.852 12.0603C13.8342 12.0426 13.8164 12.0073 13.7809 11.9719H13.7632Z" fill="#333333"/>
</svg>
