<svg width="27" height="35" viewBox="0 0 27 35" fill="none" xmlns="http://www.w3.org/2000/svg">
<path d="M22.1048 18.66C22.0805 14.4259 25.3716 12.3863 25.5179 12.283C23.6407 9.39145 20.7396 9.00419 19.7157 8.97837C17.2778 8.72019 14.9131 10.5274 13.6698 10.5274C12.4265 10.5274 10.5005 9.00419 8.42834 9.05582C5.77105 9.10746 3.30879 10.734 1.94358 13.2383C-0.859979 18.3761 1.2366 25.9407 3.91826 30.0973C5.2591 32.1369 6.84372 34.4089 8.89153 34.3315C10.915 34.254 11.6463 32.9631 14.0842 32.9631C16.5221 32.9631 17.2047 34.3315 19.3013 34.2798C21.471 34.254 22.8118 32.2402 24.1283 30.1748C25.6885 27.8512 26.298 25.5534 26.3224 25.4243C26.2736 25.4243 22.1292 23.7203 22.0805 18.66H22.1048Z" fill="#333333"/>
<path d="M18.1543 6.24706C19.227 4.82708 19.9827 2.86492 19.7633 0.876953C18.2031 0.954407 16.2284 2.01294 15.107 3.43292C14.1074 4.67217 13.2054 6.68596 13.4492 8.59648C15.2045 8.72557 17.0085 7.66704 18.1543 6.24706Z" fill="#333333"/>
</svg>
