<svg width="20" height="18" viewBox="0 0 20 18" fill="none" xmlns="http://www.w3.org/2000/svg">
<path d="M0.100098 11.116V2.63526C0.122124 1.97133 0.406457 1.34328 0.890676 0.888982C1.3749 0.434686 2.01943 0.191274 2.68278 0.212181H16.8855C17.5486 0.191648 18.1928 0.435228 18.6767 0.889484C19.1606 1.34374 19.4447 1.97158 19.4668 2.63526V11.116C19.4447 11.78 19.1604 12.408 18.6762 12.8623C18.192 13.3166 17.5474 13.56 16.8841 13.5391H4.28468L0.100098 17.7262V11.116Z" fill="white"/>
<path d="M4.94186 8.27659C5.61036 8.27659 6.15228 7.73417 6.15228 7.06505C6.15228 6.39594 5.61036 5.85352 4.94186 5.85352C4.27337 5.85352 3.73145 6.39594 3.73145 7.06505C3.73145 7.73417 4.27337 8.27659 4.94186 8.27659Z" fill="#727272"/>
<path d="M9.78366 8.27659C10.4522 8.27659 10.9941 7.73417 10.9941 7.06505C10.9941 6.39594 10.4522 5.85352 9.78366 5.85352C9.11516 5.85352 8.57324 6.39594 8.57324 7.06505C8.57324 7.73417 9.11516 8.27659 9.78366 8.27659Z" fill="#727272"/>
<path d="M14.625 8.27659C15.2935 8.27659 15.8354 7.73417 15.8354 7.06505C15.8354 6.39594 15.2935 5.85352 14.625 5.85352C13.9565 5.85352 13.4146 6.39594 13.4146 7.06505C13.4146 7.73417 13.9565 8.27659 14.625 8.27659Z" fill="#727272"/>
</svg>
