<svg width="20" height="20" viewBox="0 0 20 20" fill="none" xmlns="http://www.w3.org/2000/svg">
<path d="M16.5298 3.83648L16.5603 3.85863C17.0095 4.20235 17.3799 4.63869 17.6464 5.13831C17.9197 5.6508 18.0769 6.21728 18.1068 6.79749C18.1367 7.37771 18.0385 7.95738 17.8193 8.49531C17.6002 9.03324 17.2653 9.51621 16.8386 9.90991L16.8386 9.90988L16.8342 9.91405L9.87829 16.4902C9.74902 16.6089 9.58003 16.6747 9.40471 16.6747C9.22938 16.6747 9.06039 16.6089 8.93112 16.4902L1.97525 9.91405L1.97527 9.91403L1.97139 9.91044C1.54548 9.51623 1.2114 9.03302 0.99288 8.49506C0.774356 7.9571 0.676748 7.37759 0.706991 6.79762C0.737235 6.21766 0.894586 5.65148 1.16787 5.13923C1.44058 4.62805 1.82206 4.18308 2.28534 3.83572C3.18454 3.18406 4.28311 2.86776 5.39077 2.9416C6.49964 3.01552 7.54772 3.47577 8.35303 4.24257L8.35493 4.24436L9.06319 4.91175L9.40645 5.23518L9.74936 4.91139L10.4576 4.24262L10.4591 4.24118C11.2645 3.47439 12.3125 3.01413 13.4214 2.94022C14.5303 2.8663 15.6301 3.18338 16.5298 3.83648Z" fill="#FF583E" stroke="#FF583E"/>
</svg>
