<svg width="16" height="16" viewBox="0 0 16 16" fill="none" xmlns="http://www.w3.org/2000/svg">
<path d="M1.14286 12.6975L2.98365 10.8567H13.8672C14.4133 10.8567 14.8576 10.4724 14.8576 10V2.99954C14.8576 2.52717 14.4133 2.14286 13.8672 2.14286H2.13326C1.58715 2.14286 1.14286 2.52717 1.14286 2.99954V12.6975ZM0 15.4566V2.99954C0 1.89486 0.955543 1 2.13326 1H13.8672C15.0449 1 16.0005 1.89486 16.0005 2.99954V10C16.0005 11.1047 15.0449 11.9995 13.8672 11.9995H3.45703L0 15.4566Z" fill="#737980"/>
<path d="M4 7.6582C4.55228 7.6582 5 7.21049 5 6.6582C5 6.10592 4.55228 5.6582 4 5.6582C3.44772 5.6582 3 6.10592 3 6.6582C3 7.21049 3.44772 7.6582 4 7.6582Z" fill="#737980"/>
<path d="M8 7.6582C8.55228 7.6582 9 7.21049 9 6.6582C9 6.10592 8.55228 5.6582 8 5.6582C7.44772 5.6582 7 6.10592 7 6.6582C7 7.21049 7.44772 7.6582 8 7.6582Z" fill="#737980"/>
<path d="M12 7.6582C12.5523 7.6582 13 7.21049 13 6.6582C13 6.10592 12.5523 5.6582 12 5.6582C11.4477 5.6582 11 6.10592 11 6.6582C11 7.21049 11.4477 7.6582 12 7.6582Z" fill="#737980"/>
</svg>
