<svg width="444" height="255" viewBox="0 0 444 255" fill="none" xmlns="http://www.w3.org/2000/svg">
<g clip-path="url(#clip0_776_55113)">
<rect width="444" height="255" rx="20" fill="#B6BABD"/>
<path d="M219.278 110.604C234.256 111.816 245.855 110.989 245.348 97.4577C244.905 85.7426 235.003 72.1331 223.377 71.1933C211.751 70.2536 199.205 82.0495 196.357 93.4979C193.064 106.723 204.3 109.393 219.278 110.604Z" fill="#90959A"/>
<path d="M212.593 66.4582C216.922 65.7992 219.935 61.1052 219.319 55.9765C218.704 50.8478 214.693 47.225 210.364 47.884C206.036 48.5431 203.023 53.237 203.638 58.3657C204.254 63.4944 208.263 67.1192 212.593 66.4582Z" fill="#90959A"/>
<path d="M192.446 63.7939C191.529 64.2244 190.705 64.8342 190.022 65.5879C189.338 66.3416 188.809 67.2243 188.464 68.1857C188.119 69.147 187.965 70.168 188.011 71.1897C188.057 72.2114 188.302 73.2139 188.733 74.1395C189.432 76.0911 190.862 77.6861 192.714 78.5801C194.566 79.4741 196.691 79.5953 198.63 78.9176C199.547 78.4869 200.371 77.8771 201.054 77.1234C201.737 76.3696 202.266 75.4867 202.611 74.5253C202.956 73.564 203.11 72.543 203.064 71.5213C203.017 70.4997 202.772 69.4974 202.342 68.572C201.642 66.6209 200.212 65.0262 198.361 64.1323C196.51 63.2383 194.385 63.1168 192.446 63.7939Z" fill="#90959A"/>
<path d="M224.984 56.0635C226.125 51.0192 230.517 47.6561 234.789 48.57C239.061 49.4838 241.597 54.3226 240.453 59.3763C239.309 64.4299 234.922 67.7841 230.65 66.8702C226.377 65.9563 223.842 61.1176 224.984 56.0635Z" fill="#90959A"/>
<path d="M241.386 67.8059C242.317 65.9377 243.921 64.5025 245.867 63.7971C247.814 63.0916 249.954 63.1697 251.845 64.0154C252.714 64.5255 253.472 65.2081 254.073 66.022C254.674 66.8359 255.107 67.7643 255.345 68.7516C255.582 69.7389 255.621 70.7646 255.457 71.7671C255.293 72.7696 254.93 73.7283 254.391 74.5856C253.461 76.4536 251.857 77.8886 249.911 78.5942C247.964 79.2999 245.825 79.2221 243.933 78.3771C243.064 77.867 242.306 77.1846 241.705 76.3707C241.103 75.5567 240.671 74.6282 240.433 73.6408C240.195 72.6534 240.157 71.6276 240.32 70.6249C240.484 69.6222 240.847 68.6633 241.386 67.8059Z" fill="#90959A"/>
<path d="M209.108 89.0462H207.542V96.4991H207.44L202.12 89.047H200.642V99.2268H202.236V91.7876H202.323L207.642 99.2268H209.108V89.0462ZM213.712 99.3812C215.93 99.3812 217.38 97.8062 217.38 95.444C217.38 93.0674 215.93 91.4932 213.712 91.4932C211.48 91.4932 210.023 93.0682 210.03 95.444C210.024 97.807 211.48 99.3812 213.712 99.3812ZM211.582 95.444C211.582 93.9817 212.271 92.7371 213.713 92.7299C215.134 92.7371 215.815 93.9809 215.815 95.444C215.815 96.907 215.134 98.1293 213.713 98.1293C212.27 98.1301 211.582 96.8998 211.582 95.444ZM221.042 99.2268H222.593V91.5916H221.042V99.2268ZM220.839 89.5246C220.85 89.7691 220.96 89.9996 221.145 90.1655C221.331 90.3315 221.577 90.4194 221.829 90.4101C222.078 90.4172 222.321 90.3279 222.502 90.1619C222.684 89.9958 222.79 89.7666 222.798 89.5246C222.789 89.2822 222.682 89.053 222.5 88.887C222.317 88.7211 222.075 88.6319 221.825 88.6391C221.574 88.6321 221.33 88.7209 221.145 88.8865C220.961 89.0521 220.851 89.2812 220.839 89.5246ZM223.735 99.2268H225.287V94.5161C225.271 94.2992 225.301 94.0815 225.374 93.876C225.447 93.6706 225.562 93.4815 225.713 93.3201C225.863 93.1587 226.045 93.0283 226.248 92.9366C226.451 92.845 226.671 92.794 226.895 92.7867C227.086 92.7749 227.277 92.8023 227.455 92.8672C227.634 92.9321 227.796 93.033 227.932 93.1632C228.068 93.2934 228.173 93.45 228.242 93.6227C228.31 93.7953 228.341 93.9801 228.33 94.1649V99.2268H229.867V94.3617C229.848 94.155 229.875 93.9469 229.947 93.7513C230.018 93.5557 230.132 93.3772 230.28 93.2279C230.429 93.0786 230.609 92.962 230.808 92.8859C231.006 92.8097 231.22 92.7759 231.434 92.7867C231.635 92.7695 231.837 92.7957 232.027 92.8635C232.216 92.9313 232.388 93.039 232.529 93.1789C232.671 93.3187 232.778 93.4872 232.844 93.6722C232.911 93.8572 232.934 94.0542 232.912 94.2489V99.2268H234.463V94.1073C234.456 92.3571 233.449 91.4916 232.028 91.4916C231.54 91.4608 231.053 91.5733 230.631 91.8144C230.21 92.0555 229.873 92.414 229.664 92.8434H229.577C229.423 92.4261 229.133 92.0688 228.751 91.8252C228.37 91.5817 227.916 91.4651 227.46 91.4932C227.001 91.4672 226.546 91.5842 226.16 91.8271C225.774 92.07 225.479 92.4261 225.316 92.8434H225.228V91.5916H223.735V99.2268ZM238.895 102.25C240.925 102.25 242.454 101.357 242.447 99.3956V91.5916H240.94V92.8274H240.839C240.634 92.4118 240.308 92.0637 239.9 91.8265C239.493 91.5893 239.023 91.4734 238.549 91.4932C236.657 91.4932 235.244 92.8922 235.244 95.3328C235.244 97.7734 236.678 99.1156 238.534 99.1156C239.003 99.1466 239.472 99.0414 239.88 98.8135C240.287 98.5856 240.616 98.2453 240.824 97.8358H240.925V99.3396C240.918 100.527 240.143 101.048 238.911 101.041C237.889 101.047 237.192 100.696 237.04 99.9723H235.46C235.597 101.399 236.909 102.25 238.895 102.25ZM236.822 95.36C236.814 93.8977 237.51 92.7659 238.884 92.7731C240.217 92.7659 240.945 93.813 240.945 95.36C240.945 96.935 240.203 97.8701 238.884 97.8765C237.525 97.8669 236.817 96.8574 236.822 95.36Z" fill="#AEB3B9"/>
</g>
<defs>
<clipPath id="clip0_776_55113">
<rect width="444" height="255" rx="20" fill="white"/>
</clipPath>
</defs>
</svg>
