<svg width="71" height="70" viewBox="0 0 71 70" fill="none" xmlns="http://www.w3.org/2000/svg">
<path d="M31.2777 69.6044C46.2556 70.8158 57.8549 69.9888 57.3478 56.4577C56.9048 44.7426 47.0026 31.1331 35.3769 30.1933C23.7511 29.2536 11.2052 41.0495 8.35743 52.4979C5.064 65.7231 16.2998 68.393 31.2777 69.6044Z" fill="#90959A"/>
<path d="M24.5929 25.4582C28.9216 24.7992 31.9344 20.1052 31.3189 14.9765C30.7035 9.84784 26.6929 6.22499 22.3641 6.88403C18.0354 7.54308 15.0227 12.237 15.6381 17.3657C16.2535 22.4944 20.2622 26.1192 24.5929 25.4582Z" fill="#90959A"/>
<path d="M4.44571 22.7939C3.52872 23.2244 2.705 23.8342 2.02162 24.5879C1.33824 25.3416 0.808723 26.2243 0.463658 27.1857C0.118594 28.147 -0.0352892 29.168 0.0108323 30.1897C0.0569538 31.2114 0.302247 32.2139 0.732488 33.1395C1.43198 35.0911 2.86198 36.6861 4.71384 37.5801C6.56571 38.4741 8.69094 38.5953 10.6304 37.9176C11.5472 37.4869 12.3706 36.8771 13.0538 36.1234C13.737 35.3696 14.2664 34.4867 14.6113 33.5253C14.9562 32.564 15.1097 31.543 15.0634 30.5213C15.0172 29.4997 14.7721 28.4974 14.3418 27.572C13.6423 25.6209 12.2123 24.0262 10.3609 23.1323C8.50945 22.2383 6.38492 22.1168 4.44571 22.7939Z" fill="#90959A"/>
<path d="M36.9833 15.0635C38.1251 10.0192 42.5167 6.65609 46.7888 7.56997C51.0609 8.48385 53.5967 13.3226 52.4529 18.3763C51.3091 23.4299 46.9214 26.7841 42.6493 25.8702C38.3772 24.9563 35.8414 20.1176 36.9833 15.0635Z" fill="#90959A"/>
<path d="M53.3859 26.8059C54.3164 24.9377 55.9208 23.5025 57.8674 22.7971C59.814 22.0916 61.9541 22.1697 63.8454 23.0154C64.714 23.5255 65.4717 24.2081 66.073 25.022C66.6744 25.8359 67.1069 26.7643 67.3446 27.7516C67.5824 28.7389 67.6205 29.7646 67.4566 30.7671C67.2927 31.7696 66.9303 32.7283 66.391 33.5856C65.4607 35.4536 63.8567 36.8886 61.9105 37.5942C59.9642 38.2999 57.8244 38.2221 55.9332 37.3771C55.0644 36.867 54.3064 36.1846 53.7048 35.3707C53.1033 34.5567 52.6705 33.6282 52.4326 32.6408C52.1947 31.6534 52.1565 30.6276 52.3203 29.6249C52.4841 28.6222 52.8466 27.6633 53.3859 26.8059Z" fill="#90959A"/>
<path d="M21.1085 48.0462H19.5417V55.4991H19.4402L14.1204 48.047H12.6418V58.2268H14.2366V50.7876H14.3232L19.6423 58.2268H21.1085V48.0462ZM25.7126 58.3812C27.9301 58.3812 29.3799 56.8062 29.3799 54.444C29.3799 52.0674 27.9301 50.4932 25.7126 50.4932C23.4803 50.4932 22.0231 52.0682 22.0305 54.444C22.0239 56.807 23.4803 58.3812 25.7126 58.3812ZM23.5825 54.444C23.5825 52.9817 24.2711 51.7371 25.7134 51.7299C27.1343 51.7371 27.8155 52.9809 27.8155 54.444C27.8155 55.907 27.1343 57.1293 25.7134 57.1293C24.2703 57.1301 23.5825 55.8998 23.5825 54.444ZM33.0422 58.2268H34.5934V50.5916H33.0422V58.2268ZM32.8393 48.5246C32.85 48.7691 32.9602 48.9996 33.1456 49.1655C33.3311 49.3315 33.5768 49.4194 33.8289 49.4101C34.0784 49.4172 34.3207 49.3279 34.5024 49.1619C34.684 48.9958 34.7903 48.7666 34.7979 48.5246C34.7893 48.2822 34.6821 48.053 34.4997 47.887C34.3174 47.7211 34.0747 47.6319 33.8248 47.6391C33.5737 47.6321 33.3298 47.7209 33.1455 47.8865C32.9613 48.0521 32.8513 48.2812 32.8393 48.5246ZM35.7355 58.2268H37.2867V53.5161C37.2713 53.2992 37.3011 53.0815 37.3743 52.876C37.4475 52.6706 37.5626 52.4815 37.7127 52.3201C37.8629 52.1587 38.045 52.0283 38.2482 51.9366C38.4515 51.845 38.6716 51.794 38.8956 51.7867C39.086 51.7749 39.2768 51.8023 39.4555 51.8672C39.6341 51.9321 39.7966 52.033 39.9322 52.1632C40.0677 52.2934 40.1733 52.45 40.242 52.6227C40.3106 52.7953 40.3408 52.9801 40.3305 53.1649V58.2268H41.8669V53.3617C41.8482 53.155 41.8754 52.9469 41.9468 52.7513C42.0181 52.5557 42.1319 52.3772 42.2804 52.2279C42.4289 52.0786 42.6087 51.962 42.8077 51.8859C43.0066 51.8097 43.2201 51.7759 43.4337 51.7867C43.6349 51.7695 43.8374 51.7957 44.0269 51.8635C44.2163 51.9313 44.3879 52.039 44.5293 52.1789C44.6707 52.3187 44.7783 52.4872 44.8446 52.6722C44.9108 52.8572 44.934 53.0542 44.9123 53.2489V58.2268H46.4635V53.1073C46.4561 51.3571 45.4492 50.4916 44.0283 50.4916C43.5399 50.4608 43.0532 50.5733 42.6316 50.8144C42.2099 51.0555 41.8728 51.414 41.664 51.8434H41.5774C41.4233 51.4261 41.1334 51.0688 40.7516 50.8252C40.3697 50.5817 39.9166 50.4651 39.4605 50.4932C39.0014 50.4672 38.5458 50.5842 38.1601 50.8271C37.7744 51.07 37.4788 51.4261 37.3164 51.8434H37.2282V50.5916H35.7355V58.2268ZM50.8953 61.2497C52.9247 61.2497 54.4537 60.357 54.4471 58.3956V50.5916H52.9404V51.8274H52.839C52.6341 51.4118 52.3078 51.0637 51.9006 50.8265C51.4935 50.5893 51.0234 50.4734 50.5489 50.4932C48.6571 50.4932 47.2437 51.8922 47.2437 54.3328C47.2437 56.7734 48.6786 58.1156 50.534 58.1156C51.0036 58.1466 51.472 58.0414 51.8798 57.8135C52.2875 57.5856 52.6162 57.2453 52.8241 56.8358H52.9256V58.3396C52.9181 59.5275 52.143 60.0482 50.9109 60.041C49.8892 60.0474 49.1923 59.6963 49.0398 58.9723H47.4597C47.5974 60.3994 48.9095 61.2497 50.8953 61.2497ZM48.8221 54.36C48.8146 52.8977 49.5106 51.7659 50.8837 51.7731C52.2172 51.7659 52.9454 52.813 52.9454 54.36C52.9454 55.935 52.2032 56.8701 50.8837 56.8765C49.5255 56.8669 48.8171 55.8574 48.8221 54.36Z" fill="#AEB3B9"/>
</svg>
