<svg width="85" height="30" viewBox="0 0 85 30" fill="none" xmlns="http://www.w3.org/2000/svg">
<path d="M70.4071 29.678C69.8335 29.6972 69.2741 29.497 68.8434 29.1182C68.6313 28.9132 68.4661 28.6648 68.3591 28.3901C68.2522 28.1154 68.2059 27.8208 68.2236 27.5265V9.33906C68.2063 9.04659 68.2481 8.75362 68.3467 8.47768C68.4453 8.20174 68.5986 7.94849 68.7974 7.73308C68.9987 7.53972 69.2372 7.38921 69.4984 7.29068C69.7597 7.19214 70.0382 7.14763 70.3172 7.15986C70.7813 7.15123 71.2344 7.30198 71.6007 7.58691C71.9739 7.88843 72.2297 8.31093 72.3237 8.78113C72.8956 8.09536 73.6333 7.56689 74.467 7.24584C75.1585 6.97228 75.8927 6.82255 76.6362 6.8035C77.6016 6.80397 78.5596 6.9724 79.4671 7.30125C80.3957 7.6391 81.241 8.17173 81.9462 8.86329C82.7123 9.631 83.3103 10.5494 83.7021 11.5603C84.1696 12.798 84.395 14.1138 84.3659 15.4363C84.3837 16.6293 84.1733 17.8148 83.7461 18.9291C83.3652 19.9098 82.7879 20.8026 82.0495 21.5526C81.3312 22.2707 80.4767 22.8385 79.536 23.2226C78.5668 23.6178 77.529 23.8181 76.4822 23.812C75.8139 23.8036 75.1496 23.7095 74.5053 23.5321C73.7907 23.3403 73.1328 22.9799 72.5867 22.4812V27.5265C72.6037 27.8247 72.5528 28.1228 72.4379 28.3985C72.3229 28.6742 72.1469 28.9202 71.923 29.1182C71.5023 29.4822 70.9636 29.6812 70.4071 29.678ZM76.1025 10.4588C75.6255 10.4521 75.1527 10.5476 74.7157 10.7387C74.3125 10.9192 73.9471 11.1743 73.6388 11.4906C73.3318 11.8086 73.0909 12.1843 72.9301 12.5959C72.7607 13.033 72.6757 13.4982 72.6795 13.9669V16.2951C72.6783 16.7814 72.7529 17.2648 72.9004 17.7282C73.0399 18.1752 73.2547 18.5952 73.5355 18.9702C73.8046 19.3277 74.1465 19.624 74.5388 19.8396C74.9464 20.0589 75.4033 20.1707 75.8663 20.1644C76.4721 20.1771 77.0728 20.0509 77.6222 19.7956C78.1104 19.5601 78.539 19.2176 78.8761 18.7934C79.2236 18.3432 79.4749 17.8265 79.6144 17.2754C79.7756 16.6494 79.8546 16.0052 79.8497 15.3589C79.922 14.0867 79.5805 12.8252 78.8761 11.7628C78.5554 11.3359 78.135 10.9938 77.6515 10.7665C77.1681 10.5392 76.6362 10.4335 76.1025 10.4588ZM39.8067 23.9104C39.7216 23.9104 39.6413 23.9104 39.5696 23.9009C38.8087 23.909 38.0562 23.7426 37.3698 23.4146C36.8156 23.1312 36.3354 22.7223 35.9677 22.2204C35.609 21.7167 35.358 21.1447 35.2303 20.5399C35.0918 19.9008 35.0225 19.2486 35.0237 18.5947V10.754H34.2022C33.955 10.7664 33.7079 10.7298 33.4749 10.6464C33.242 10.5629 33.0279 10.4342 32.845 10.2677C32.6773 10.1002 32.5461 9.89981 32.4599 9.67912C32.3736 9.45844 32.3341 9.22228 32.3439 8.98557C32.3369 8.75149 32.3778 8.51844 32.4639 8.30064C32.5501 8.08284 32.6798 7.88485 32.845 7.71875C33.0256 7.54788 33.239 7.41528 33.4722 7.32891C33.7054 7.24255 33.9537 7.20422 34.2022 7.21622H35.0582V5.32936C35.0415 5.03292 35.0881 4.73633 35.195 4.45928C35.3018 4.18222 35.4664 3.93105 35.6779 3.72242C36.1049 3.33583 36.6657 3.13027 37.2417 3.1492C37.8018 3.14579 38.3433 3.35004 38.7614 3.72242C38.9849 3.924 39.1605 4.17286 39.2755 4.45086C39.3905 4.72886 39.442 5.02898 39.4261 5.32936V7.21622H41.403C41.654 7.20136 41.9053 7.23822 42.1414 7.32451C42.3775 7.41079 42.5933 7.54466 42.7754 7.71779C42.9368 7.88601 43.063 8.0847 43.1466 8.30222C43.2302 8.51974 43.2695 8.75173 43.2623 8.98462C43.2713 9.21976 43.2324 9.45428 43.1481 9.674C43.0638 9.89372 42.9357 10.0941 42.7716 10.2629C42.5872 10.4318 42.3707 10.5619 42.1349 10.6455C41.8991 10.729 41.6489 10.7643 41.3992 10.7492H39.4223V18.5909C39.4112 19.0119 39.471 19.4317 39.5992 19.8329C39.7168 20.1654 40.0439 20.3345 40.5728 20.3345H40.941C41.0742 20.3341 41.2072 20.3242 41.3389 20.3048C41.4546 20.3048 41.6144 20.3048 41.8257 20.2905H41.8955C42.0929 20.2927 42.2885 20.3279 42.4742 20.3946C42.7106 20.4808 42.9196 20.6286 43.0796 20.8227C43.2796 21.0922 43.393 21.416 43.4048 21.7513C43.4559 22.0732 43.4043 22.4031 43.2575 22.6942C43.1257 22.9226 42.9443 23.1185 42.7267 23.2675C42.519 23.411 42.2898 23.5206 42.0476 23.5923C41.8452 23.6542 41.6379 23.6986 41.4279 23.7251C41.075 23.7843 40.7278 23.834 40.3949 23.8722C40.1998 23.8961 40.0034 23.9089 39.8067 23.9104ZM24.992 23.8713C23.9348 23.8773 22.8837 23.7131 21.8788 23.385C20.9038 23.0693 20.0115 22.5403 19.267 21.8366C18.5224 21.1328 17.9444 20.2721 17.575 19.317C17.1269 18.136 16.9115 16.8795 16.9409 15.6168C16.9301 14.4375 17.1043 13.2637 17.4574 12.1383C17.7723 11.1308 18.2818 10.1948 18.957 9.38301C19.6169 8.60747 20.4372 7.98396 21.3614 7.55538C22.3717 7.10063 23.4699 6.87424 24.5778 6.89235C25.6269 6.86917 26.6701 7.05427 27.647 7.43691C28.4721 7.77358 29.2165 8.28085 29.8314 8.92539C30.4386 9.58325 30.9098 10.3543 31.2182 11.1944C31.5608 12.1162 31.7888 13.0765 31.8972 14.0538C31.9804 14.4352 31.984 14.8296 31.9078 15.2124C31.8316 15.5953 31.6773 15.9583 31.4544 16.2789C31.1028 16.5652 30.6965 16.777 30.2602 16.9012C29.824 17.0254 29.3669 17.0594 28.9171 17.0012H21.3327C21.3483 17.4986 21.4695 17.9871 21.6883 18.4343C21.9071 18.8815 22.2185 19.2771 22.6019 19.595C23.3733 20.123 24.2936 20.3909 25.2282 20.3593C26.4193 20.3115 27.5864 20.0099 28.6512 19.4746C28.7841 19.4173 28.962 19.3456 29.1963 19.2539C29.4274 19.1649 29.6718 19.1151 29.9194 19.1068H29.972C30.216 19.1087 30.4559 19.1697 30.6711 19.2845C30.9539 19.4577 31.1678 19.7234 31.2765 20.0364C31.4259 20.355 31.4788 20.7104 31.4286 21.0586C31.3756 21.3306 31.2537 21.5845 31.0747 21.7962C30.9046 21.9963 30.7058 22.1702 30.4846 22.3121C30.2752 22.4449 30.0963 22.5548 29.9538 22.6369C29.1892 23.0633 28.3704 23.3847 27.5198 23.5923C26.6907 23.7819 25.8425 23.8756 24.992 23.8713ZM24.5788 10.4005C24.1443 10.3837 23.7116 10.4651 23.313 10.6386C22.9144 10.8121 22.5602 11.0733 22.2767 11.4027C22.0256 11.6906 21.826 12.0196 21.6866 12.3752C21.5521 12.718 21.4534 13.0737 21.392 13.4367H27.5599C27.4903 13.0882 27.3865 12.7474 27.25 12.4192C27.1076 12.0639 26.9143 11.7312 26.6762 11.4313C26.4355 11.1329 26.1401 10.8829 25.8059 10.6947C25.4299 10.4903 25.0067 10.3885 24.5788 10.3995V10.4005ZM63.2369 23.5426C62.6633 23.5616 62.104 23.3614 61.6731 22.9828C61.4611 22.7777 61.296 22.5294 61.189 22.2546C61.082 21.9799 61.0358 21.6853 61.0534 21.3911V9.39734C61.0367 9.10091 61.0833 8.80431 61.1902 8.52726C61.297 8.25021 61.4617 7.99903 61.6731 7.7904C62.1001 7.40381 62.6609 7.19825 63.2369 7.21718C63.797 7.21386 64.3385 7.4181 64.7566 7.7904C64.9799 7.99212 65.1553 8.24102 65.2701 8.51901C65.3849 8.79699 65.4363 9.09705 65.4204 9.39734V21.3949C65.4372 21.6931 65.3862 21.9912 65.2713 22.2668C65.1563 22.5425 64.9804 22.7885 64.7566 22.9866C64.3344 23.3501 63.7942 23.5477 63.2369 23.5426ZM51.167 23.5426C50.5841 23.5592 50.0179 23.3476 49.5889 22.9531C49.3735 22.7431 49.2054 22.4896 49.0959 22.2095C48.9864 21.9295 48.9379 21.6293 48.9538 21.329V4.91282H44.9369C44.6691 4.92814 44.4008 4.89045 44.1475 4.80192C43.8943 4.71339 43.661 4.57575 43.4612 4.39691C43.2851 4.22263 43.147 4.01382 43.0557 3.78363C42.9643 3.55344 42.9217 3.30686 42.9304 3.05939C42.9202 2.8046 42.9621 2.55042 43.0533 2.31228C43.1446 2.07414 43.2833 1.85701 43.4612 1.6741C43.6593 1.49061 43.8925 1.34904 44.1467 1.25792C44.401 1.1668 44.6711 1.128 44.9408 1.14387H57.6342C57.9033 1.12852 58.1726 1.16758 58.4262 1.25869C58.6798 1.3498 58.9123 1.49109 59.11 1.6741C59.2878 1.85701 59.4266 2.07414 59.5178 2.31228C59.6091 2.55042 59.6509 2.8046 59.6408 3.05939C59.6494 3.30685 59.6067 3.55342 59.5154 3.7836C59.424 4.01378 59.286 4.22259 59.11 4.39691C58.9101 4.57575 58.6769 4.71339 58.4236 4.80192C58.1704 4.89045 57.9021 4.92814 57.6342 4.91282H53.4098V21.3357C53.4248 21.6398 53.3716 21.9435 53.2542 22.2245C53.1367 22.5055 52.9578 22.7567 52.7307 22.9598C52.2998 23.341 51.7425 23.5486 51.167 23.5426ZM3.06627 23.5426C2.47922 23.5569 1.90898 23.346 1.47289 22.9531C1.25449 22.7461 1.0834 22.4944 0.971322 22.2153C0.859244 21.9361 0.808819 21.6361 0.823492 21.3357V4.41602C0.764245 3.53296 1.05018 2.66136 1.62114 1.9846C1.96933 1.6775 2.37655 1.44456 2.81791 1.30001C3.25928 1.15545 3.72552 1.10232 4.18814 1.14387H8.52641C11.0322 1.14387 12.9259 1.7639 14.1472 2.98583C14.7953 3.70456 15.2925 4.54582 15.6094 5.45985C15.9262 6.37388 16.0564 7.3421 15.9921 8.30726C16.0477 9.26814 15.9119 10.2305 15.5928 11.1386C15.2737 12.0468 14.7775 12.8827 14.1329 13.5981C12.8991 14.8602 11.0131 15.4993 8.52641 15.4993H5.2794V21.3357C5.29481 21.6385 5.24333 21.9409 5.12862 22.2216C5.01391 22.5023 4.83878 22.7543 4.61566 22.9598C4.19118 23.3422 3.6378 23.5503 3.06627 23.5426ZM8.33131 7.478C6.81349 7.478 5.29279 9.19767 4.94753 10.7396C4.86567 10.992 4.84037 11.2592 4.87343 11.5223C4.90648 11.7855 4.99709 12.0382 5.13881 12.2625C5.63232 12.9389 6.78862 13.13 7.965 13.2351C8.40495 13.2742 8.755 13.2934 9.06679 13.2934C9.40471 13.3329 9.74715 13.3043 10.0738 13.2091C10.4004 13.1139 10.7045 12.9541 10.9681 12.7392C11.1336 12.5445 11.257 12.3177 11.3308 12.0731C11.4045 11.8285 11.4269 11.5713 11.3966 11.3176C11.344 9.66103 10.0643 7.62608 8.50442 7.48564C8.44703 7.48086 8.38869 7.478 8.33131 7.478ZM12.4573 6.4032C12.2133 6.41568 11.9752 6.48258 11.7605 6.59897C11.5457 6.71537 11.3598 6.87832 11.2164 7.07586C11.0729 7.2734 10.9756 7.50052 10.9314 7.74055C10.8873 7.98058 10.8976 8.22743 10.9614 8.46299C11.008 8.62432 11.0865 8.77467 11.1923 8.90514C11.2981 9.03561 11.429 9.14353 11.5774 9.22251C11.7573 9.31687 11.9576 9.36574 12.1608 9.36486C12.4053 9.35265 12.6439 9.28579 12.8591 9.16923C13.0743 9.05266 13.2606 8.88936 13.4042 8.69134C13.5478 8.49332 13.6451 8.26563 13.689 8.02505C13.7328 7.78447 13.7221 7.53713 13.6576 7.30125C13.5831 7.04093 13.4256 6.81202 13.2089 6.64939C12.9922 6.48675 12.7283 6.3993 12.4573 6.40033V6.4032ZM4.11545 5.67712C3.95353 5.67772 3.79331 5.71018 3.64394 5.77265C3.29856 5.9394 3.03272 6.2352 2.90387 6.59612C2.77502 6.95705 2.79351 7.35413 2.95533 7.70155C3.06088 7.98137 3.24662 8.22392 3.48934 8.39893C3.73206 8.57393 4.02102 8.67364 4.32013 8.68559C4.48206 8.68508 4.6423 8.65262 4.79164 8.59005C5.13702 8.4233 5.40285 8.12751 5.5317 7.76658C5.66056 7.40565 5.64207 7.00858 5.48025 6.66115C5.3748 6.38127 5.18909 6.13865 4.94635 5.96362C4.7036 5.7886 4.41459 5.68895 4.11545 5.67712ZM10.488 3.25047C10.1069 3.28008 9.7466 3.43636 9.46474 3.69437C9.18287 3.95238 8.99563 4.29726 8.93289 4.67397C8.816 5.15557 8.89438 5.6638 9.15095 6.08793C9.24292 6.23773 9.36389 6.3677 9.50676 6.47022C9.64964 6.57275 9.81155 6.64578 9.98303 6.68504C10.0694 6.70386 10.1576 6.71346 10.246 6.7137C10.6273 6.68375 10.9877 6.52726 11.2696 6.26913C11.5516 6.011 11.7391 5.66607 11.8021 5.28923C11.9197 4.80631 11.8409 4.29653 11.5831 3.87146C11.491 3.72184 11.37 3.59205 11.2272 3.48969C11.0843 3.38733 10.9224 3.31445 10.751 3.27531C10.6646 3.25682 10.5764 3.24753 10.488 3.2476V3.25047ZM6.64803 2.92086C6.58399 2.92077 6.52005 2.92556 6.45674 2.93519C6.03976 3.04205 5.67915 3.30349 5.4482 3.66639C5.21726 4.0293 5.13331 4.46642 5.21341 4.88893C5.2324 5.27741 5.39188 5.64581 5.66224 5.92571C5.93259 6.20561 6.29544 6.37799 6.68341 6.41084C6.74745 6.41105 6.81141 6.40626 6.8747 6.39651C7.29148 6.28966 7.65194 6.02836 7.88286 5.66567C8.11379 5.30298 8.19787 4.8661 8.11803 4.44373C8.09926 4.05508 7.93988 3.68646 7.66951 3.40636C7.39913 3.12626 7.03615 2.95374 6.64803 2.92086ZM63.2675 6.18537C62.8934 6.18874 62.5223 6.11862 62.1753 5.97901C61.8436 5.84358 61.5422 5.64352 61.2887 5.3905C61.0336 5.13573 60.8283 4.83572 60.6833 4.50583C60.5343 4.16149 60.4591 3.78987 60.4623 3.41479C60.4615 3.04294 60.537 2.67487 60.6842 2.33331C60.8266 1.99772 61.0321 1.69254 61.2896 1.4343C61.5444 1.17985 61.8444 0.97509 62.1743 0.830505C62.5199 0.684569 62.8913 0.609375 63.2665 0.609375C63.6417 0.609375 64.0131 0.684569 64.3587 0.830505C64.689 0.974869 64.9894 1.17965 65.2444 1.4343C65.5003 1.69074 65.7011 1.99665 65.8345 2.33331C65.9716 2.6754 66.0417 3.04058 66.0411 3.40906C66.0481 3.77482 65.9811 4.13824 65.8442 4.47755C65.7073 4.81686 65.5033 5.12508 65.2443 5.38377C64.9854 5.64245 64.6768 5.84627 64.3371 5.98302C63.9975 6.11978 63.6336 6.18665 63.2675 6.17964V6.18537Z" fill="white"/>
</svg>
